<svg xmlns="http://www.w3.org/2000/svg" xmlns:xlink="http://www.w3.org/1999/xlink" contentStyleType="text/css" data-diagram-type="CLASS" height="1019px" preserveAspectRatio="none" style="width:675px;height:1019px;background:#FFFFFF;" version="1.1" viewBox="0 0 675 1019" width="675px" zoomAndPan="magnify"><title>Mod&#233;lisation MVC &#8212; Projet GL</title><defs/><g><g class="title" data-source-line="1"><text fill="#000000" font-family="sans-serif" font-size="14" font-weight="bold" lengthAdjust="spacing" textLength="211.4272" x="224.7864" y="24.9659">Mod&#233;lisation MVC &#8212; Projet GL</text></g><!--cluster Model--><g class="cluster" data-entity="Model" data-source-line="17" data-uid="ent0002" id="cluster_Model"><path d="M527.5,46.6699 L571.7738,46.6699 A3.75,3.75 0 0 1 574.2738,49.1699 L581.2738,71.7378 L665.5,71.7378 A2.5,2.5 0 0 1 668,74.2378 L668,1010.1699 A2.5,2.5 0 0 1 665.5,1012.6699 L527.5,1012.6699 A2.5,2.5 0 0 1 525,1010.1699 L525,49.1699 A2.5,2.5 0 0 1 527.5,46.6699" fill="#DDFFDD" style="stroke:#000000;stroke-width:1.5;"/><line style="stroke:#000000;stroke-width:1.5;" x1="525" x2="581.2738" y1="71.7378" y2="71.7378"/><text fill="#000000" font-family="sans-serif" font-size="14" font-weight="bold" lengthAdjust="spacing" textLength="43.2738" x="529" y="63.6358">Model</text></g><!--cluster Controller--><g class="cluster" data-entity="Controller" data-source-line="30" data-uid="ent0012" id="cluster_Controller"><path d="M250.5,46.6699 L322.5497,46.6699 A3.75,3.75 0 0 1 325.0497,49.1699 L332.0497,71.7378 L454.5,71.7378 A2.5,2.5 0 0 1 457,74.2378 L457,470.1699 A2.5,2.5 0 0 1 454.5,472.6699 L250.5,472.6699 A2.5,2.5 0 0 1 248,470.1699 L248,49.1699 A2.5,2.5 0 0 1 250.5,46.6699" fill="#FFE4B5" style="stroke:#000000;stroke-width:1.5;"/><line style="stroke:#000000;stroke-width:1.5;" x1="248" x2="332.0497" y1="71.7378" y2="71.7378"/><text fill="#000000" font-family="sans-serif" font-size="14" font-weight="bold" lengthAdjust="spacing" textLength="71.0497" x="252" y="63.6358">Controller</text></g><!--cluster View--><g class="cluster" data-entity="View" data-source-line="38" data-uid="ent0017" id="cluster_View"><path d="M8.5,46.6699 L43.1279,46.6699 A3.75,3.75 0 0 1 45.6279,49.1699 L52.6279,71.7378 L177.5,71.7378 A2.5,2.5 0 0 1 180,74.2378 L180,794.1699 A2.5,2.5 0 0 1 177.5,796.6699 L8.5,796.6699 A2.5,2.5 0 0 1 6,794.1699 L6,49.1699 A2.5,2.5 0 0 1 8.5,46.6699" fill="#DDEEFF" style="stroke:#000000;stroke-width:1.5;"/><line style="stroke:#000000;stroke-width:1.5;" x1="6" x2="52.6279" y1="71.7378" y2="71.7378"/><text fill="#000000" font-family="sans-serif" font-size="14" font-weight="bold" lengthAdjust="spacing" textLength="33.6279" x="10" y="63.6358">View</text></g><!--class Joueur--><g class="entity" data-entity="Joueur" data-source-line="18" data-uid="ent0003" id="entity_Joueur"><rect fill="#F1F1F1" height="48" rx="2.5" ry="2.5" style="stroke:#181818;stroke-width:0.5;" width="75.2738" x="559" y="624.6699"/><ellipse cx="574" cy="640.6699" fill="#ADD1B2" rx="11" ry="11" style="stroke:#181818;stroke-width:1;"/><path d="M576.9688,646.3105 Q576.3906,646.6074 575.75,646.748 Q575.1094,646.9043 574.4063,646.9043 Q571.9063,646.9043 570.5781,645.2636 Q569.2656,643.6074 569.2656,640.4824 Q569.2656,637.3574 570.5781,635.7011 Q571.9063,634.0449 574.4063,634.0449 Q575.1094,634.0449 575.75,634.2011 Q576.4063,634.3574 576.9688,634.6543 L576.9688,637.373 Q576.3438,636.7949 575.75,636.5293 Q575.1563,636.248 574.5313,636.248 Q573.1875,636.248 572.5,637.3261 Q571.8125,638.3886 571.8125,640.4824 Q571.8125,642.5761 572.5,643.6543 Q573.1875,644.7168 574.5313,644.7168 Q575.1563,644.7168 575.75,644.4511 Q576.3438,644.1699 576.9688,643.5918 L576.9688,646.3105 Z " fill="#000000"/><text fill="#000000" font-family="sans-serif" font-size="14" lengthAdjust="spacing" textLength="43.2738" x="588" y="646.1019">Joueur</text><line style="stroke:#181818;stroke-width:0.5;" x1="560" x2="633.2738" y1="656.6699" y2="656.6699"/><line style="stroke:#181818;stroke-width:0.5;" x1="560" x2="633.2738" y1="664.6699" y2="664.6699"/></g><!--class MeneurJeu--><g class="entity" data-entity="MeneurJeu" data-source-line="19" data-uid="ent0004" id="entity_MeneurJeu"><rect fill="#F1F1F1" height="48" rx="2.5" ry="2.5" style="stroke:#181818;stroke-width:0.5;" width="103.9457" x="544.5" y="192.6699"/><ellipse cx="559.5" cy="208.6699" fill="#ADD1B2" rx="11" ry="11" style="stroke:#181818;stroke-width:1;"/><path d="M562.4688,214.3105 Q561.8906,214.6074 561.25,214.748 Q560.6094,214.9043 559.9063,214.9043 Q557.4063,214.9043 556.0781,213.2636 Q554.7656,211.6074 554.7656,208.4824 Q554.7656,205.3574 556.0781,203.7011 Q557.4063,202.0449 559.9063,202.0449 Q560.6094,202.0449 561.25,202.2011 Q561.9063,202.3574 562.4688,202.6543 L562.4688,205.373 Q561.8438,204.7949 561.25,204.5293 Q560.6563,204.248 560.0313,204.248 Q558.6875,204.248 558,205.3261 Q557.3125,206.3886 557.3125,208.4824 Q557.3125,210.5761 558,211.6543 Q558.6875,212.7168 560.0313,212.7168 Q560.6563,212.7168 561.25,212.4511 Q561.8438,212.1699 562.4688,211.5918 L562.4688,214.3105 Z " fill="#000000"/><text fill="#000000" font-family="sans-serif" font-size="14" lengthAdjust="spacing" textLength="71.9457" x="573.5" y="214.1019">MeneurJeu</text><line style="stroke:#181818;stroke-width:0.5;" x1="545.5" x2="647.4457" y1="224.6699" y2="224.6699"/><line style="stroke:#181818;stroke-width:0.5;" x1="545.5" x2="647.4457" y1="232.6699" y2="232.6699"/></g><!--class Partie--><g class="entity" data-entity="Partie" data-source-line="20" data-uid="ent0005" id="entity_Partie"><rect fill="#F1F1F1" height="48" rx="2.5" ry="2.5" style="stroke:#181818;stroke-width:0.5;" width="70.6679" x="561" y="300.6699"/><ellipse cx="576" cy="316.6699" fill="#ADD1B2" rx="11" ry="11" style="stroke:#181818;stroke-width:1;"/><path d="M578.9688,322.3105 Q578.3906,322.6074 577.75,322.748 Q577.1094,322.9043 576.4063,322.9043 Q573.9063,322.9043 572.5781,321.2636 Q571.2656,319.6074 571.2656,316.4824 Q571.2656,313.3574 572.5781,311.7011 Q573.9063,310.0449 576.4063,310.0449 Q577.1094,310.0449 577.75,310.2011 Q578.4063,310.3574 578.9688,310.6543 L578.9688,313.373 Q578.3438,312.7949 577.75,312.5293 Q577.1563,312.248 576.5313,312.248 Q575.1875,312.248 574.5,313.3261 Q573.8125,314.3886 573.8125,316.4824 Q573.8125,318.5761 574.5,319.6543 Q575.1875,320.7168 576.5313,320.7168 Q577.1563,320.7168 577.75,320.4511 Q578.3438,320.1699 578.9688,319.5918 L578.9688,322.3105 Z " fill="#000000"/><text fill="#000000" font-family="sans-serif" font-size="14" lengthAdjust="spacing" textLength="38.6679" x="590" y="322.1019">Partie</text><line style="stroke:#181818;stroke-width:0.5;" x1="562" x2="630.6679" y1="332.6699" y2="332.6699"/><line style="stroke:#181818;stroke-width:0.5;" x1="562" x2="630.6679" y1="340.6699" y2="340.6699"/></g><!--class Personnage--><g class="entity" data-entity="Personnage" data-source-line="21" data-uid="ent0006" id="entity_Personnage"><rect fill="#F1F1F1" height="48" rx="2.5" ry="2.5" style="stroke:#181818;stroke-width:0.5;" width="110.9877" x="541" y="84.6699"/><ellipse cx="556" cy="100.6699" fill="#ADD1B2" rx="11" ry="11" style="stroke:#181818;stroke-width:1;"/><path d="M558.9688,106.3105 Q558.3906,106.6074 557.75,106.748 Q557.1094,106.9043 556.4063,106.9043 Q553.9063,106.9043 552.5781,105.2636 Q551.2656,103.6074 551.2656,100.4824 Q551.2656,97.3574 552.5781,95.7011 Q553.9063,94.0449 556.4063,94.0449 Q557.1094,94.0449 557.75,94.2011 Q558.4063,94.3574 558.9688,94.6543 L558.9688,97.373 Q558.3438,96.7949 557.75,96.5293 Q557.1563,96.248 556.5313,96.248 Q555.1875,96.248 554.5,97.3261 Q553.8125,98.3886 553.8125,100.4824 Q553.8125,102.5761 554.5,103.6543 Q555.1875,104.7168 556.5313,104.7168 Q557.1563,104.7168 557.75,104.4511 Q558.3438,104.1699 558.9688,103.5918 L558.9688,106.3105 Z " fill="#000000"/><text fill="#000000" font-family="sans-serif" font-size="14" lengthAdjust="spacing" textLength="78.9877" x="570" y="106.1019">Personnage</text><line style="stroke:#181818;stroke-width:0.5;" x1="542" x2="650.9877" y1="116.6699" y2="116.6699"/><line style="stroke:#181818;stroke-width:0.5;" x1="542" x2="650.9877" y1="124.6699" y2="124.6699"/></g><!--class Aventure--><g class="entity" data-entity="Aventure" data-source-line="22" data-uid="ent0007" id="entity_Aventure"><rect fill="#F1F1F1" height="48" rx="2.5" ry="2.5" style="stroke:#181818;stroke-width:0.5;" width="91.9898" x="550.5" y="516.6699"/><ellipse cx="565.5" cy="532.6699" fill="#ADD1B2" rx="11" ry="11" style="stroke:#181818;stroke-width:1;"/><path d="M568.4688,538.3105 Q567.8906,538.6074 567.25,538.748 Q566.6094,538.9043 565.9063,538.9043 Q563.4063,538.9043 562.0781,537.2636 Q560.7656,535.6074 560.7656,532.4824 Q560.7656,529.3574 562.0781,527.7011 Q563.4063,526.0449 565.9063,526.0449 Q566.6094,526.0449 567.25,526.2011 Q567.9063,526.3574 568.4688,526.6543 L568.4688,529.373 Q567.8438,528.7949 567.25,528.5293 Q566.6563,528.248 566.0313,528.248 Q564.6875,528.248 564,529.3261 Q563.3125,530.3886 563.3125,532.4824 Q563.3125,534.5761 564,535.6543 Q564.6875,536.7168 566.0313,536.7168 Q566.6563,536.7168 567.25,536.4511 Q567.8438,536.1699 568.4688,535.5918 L568.4688,538.3105 Z " fill="#000000"/><text fill="#000000" font-family="sans-serif" font-size="14" lengthAdjust="spacing" textLength="59.9898" x="579.5" y="538.1019">Aventure</text><line style="stroke:#181818;stroke-width:0.5;" x1="551.5" x2="641.4898" y1="548.6699" y2="548.6699"/><line style="stroke:#181818;stroke-width:0.5;" x1="551.5" x2="641.4898" y1="556.6699" y2="556.6699"/></g><!--class Biographie--><g class="entity" data-entity="Biographie" data-source-line="23" data-uid="ent0008" id="entity_Biographie"><rect fill="#F1F1F1" height="48" rx="2.5" ry="2.5" style="stroke:#181818;stroke-width:0.5;" width="104.1977" x="544.5" y="408.6699"/><ellipse cx="559.5" cy="424.6699" fill="#ADD1B2" rx="11" ry="11" style="stroke:#181818;stroke-width:1;"/><path d="M562.4688,430.3105 Q561.8906,430.6074 561.25,430.748 Q560.6094,430.9043 559.9063,430.9043 Q557.4063,430.9043 556.0781,429.2636 Q554.7656,427.6074 554.7656,424.4824 Q554.7656,421.3574 556.0781,419.7011 Q557.4063,418.0449 559.9063,418.0449 Q560.6094,418.0449 561.25,418.2011 Q561.9063,418.3574 562.4688,418.6543 L562.4688,421.373 Q561.8438,420.7949 561.25,420.5293 Q560.6563,420.248 560.0313,420.248 Q558.6875,420.248 558,421.3261 Q557.3125,422.3886 557.3125,424.4824 Q557.3125,426.5761 558,427.6543 Q558.6875,428.7168 560.0313,428.7168 Q560.6563,428.7168 561.25,428.4511 Q561.8438,428.1699 562.4688,427.5918 L562.4688,430.3105 Z " fill="#000000"/><text fill="#000000" font-family="sans-serif" font-size="14" lengthAdjust="spacing" textLength="72.1977" x="573.5" y="430.1019">Biographie</text><line style="stroke:#181818;stroke-width:0.5;" x1="545.5" x2="647.6977" y1="440.6699" y2="440.6699"/><line style="stroke:#181818;stroke-width:0.5;" x1="545.5" x2="647.6977" y1="448.6699" y2="448.6699"/></g><!--class Episode--><g class="entity" data-entity="Episode" data-source-line="24" data-uid="ent0009" id="entity_Episode"><rect fill="#F1F1F1" height="48" rx="2.5" ry="2.5" style="stroke:#181818;stroke-width:0.5;" width="83.6878" x="554.5" y="732.6699"/><ellipse cx="569.5" cy="748.6699" fill="#ADD1B2" rx="11" ry="11" style="stroke:#181818;stroke-width:1;"/><path d="M572.4688,754.3105 Q571.8906,754.6074 571.25,754.748 Q570.6094,754.9043 569.9063,754.9043 Q567.4063,754.9043 566.0781,753.2636 Q564.7656,751.6074 564.7656,748.4824 Q564.7656,745.3574 566.0781,743.7011 Q567.4063,742.0449 569.9063,742.0449 Q570.6094,742.0449 571.25,742.2011 Q571.9063,742.3574 572.4688,742.6543 L572.4688,745.373 Q571.8438,744.7949 571.25,744.5293 Q570.6563,744.248 570.0313,744.248 Q568.6875,744.248 568,745.3261 Q567.3125,746.3886 567.3125,748.4824 Q567.3125,750.5761 568,751.6543 Q568.6875,752.7168 570.0313,752.7168 Q570.6563,752.7168 571.25,752.4511 Q571.8438,752.1699 572.4688,751.5918 L572.4688,754.3105 Z " fill="#000000"/><text fill="#000000" font-family="sans-serif" font-size="14" lengthAdjust="spacing" textLength="51.6878" x="583.5" y="754.1019">Episode</text><line style="stroke:#181818;stroke-width:0.5;" x1="555.5" x2="637.1878" y1="764.6699" y2="764.6699"/><line style="stroke:#181818;stroke-width:0.5;" x1="555.5" x2="637.1878" y1="772.6699" y2="772.6699"/></g><!--class Paragraphe--><g class="entity" data-entity="Paragraphe" data-source-line="25" data-uid="ent0010" id="entity_Paragraphe"><rect fill="#F1F1F1" height="48" rx="2.5" ry="2.5" style="stroke:#181818;stroke-width:0.5;" width="109.3637" x="542" y="840.6699"/><ellipse cx="557" cy="856.6699" fill="#ADD1B2" rx="11" ry="11" style="stroke:#181818;stroke-width:1;"/><path d="M559.9688,862.3105 Q559.3906,862.6074 558.75,862.748 Q558.1094,862.9043 557.4063,862.9043 Q554.9063,862.9043 553.5781,861.2636 Q552.2656,859.6074 552.2656,856.4824 Q552.2656,853.3574 553.5781,851.7011 Q554.9063,850.0449 557.4063,850.0449 Q558.1094,850.0449 558.75,850.2011 Q559.4063,850.3574 559.9688,850.6543 L559.9688,853.373 Q559.3438,852.7949 558.75,852.5293 Q558.1563,852.248 557.5313,852.248 Q556.1875,852.248 555.5,853.3261 Q554.8125,854.3886 554.8125,856.4824 Q554.8125,858.5761 555.5,859.6543 Q556.1875,860.7168 557.5313,860.7168 Q558.1563,860.7168 558.75,860.4511 Q559.3438,860.1699 559.9688,859.5918 L559.9688,862.3105 Z " fill="#000000"/><text fill="#000000" font-family="sans-serif" font-size="14" lengthAdjust="spacing" textLength="77.3637" x="571" y="862.1019">Paragraphe</text><line style="stroke:#181818;stroke-width:0.5;" x1="543" x2="650.3637" y1="872.6699" y2="872.6699"/><line style="stroke:#181818;stroke-width:0.5;" x1="543" x2="650.3637" y1="880.6699" y2="880.6699"/></g><!--class Univers--><g class="entity" data-entity="Univers" data-source-line="26" data-uid="ent0011" id="entity_Univers"><rect fill="#F1F1F1" height="48" rx="2.5" ry="2.5" style="stroke:#181818;stroke-width:0.5;" width="81.9938" x="555.5" y="948.6699"/><ellipse cx="570.5" cy="964.6699" fill="#EB937F" rx="11" ry="11" style="stroke:#181818;stroke-width:1;"/><path d="M574.6094,970.6699 L566.8906,970.6699 L566.8906,958.2793 L574.6094,958.2793 L574.6094,960.4355 L569.3438,960.4355 L569.3438,963.1074 L574.1094,963.1074 L574.1094,965.2636 L569.3438,965.2636 L569.3438,968.5136 L574.6094,968.5136 L574.6094,970.6699 Z " fill="#000000"/><text fill="#000000" font-family="sans-serif" font-size="14" lengthAdjust="spacing" textLength="49.9938" x="584.5" y="970.1019">Univers</text><line style="stroke:#181818;stroke-width:0.5;" x1="556.5" x2="636.4938" y1="980.6699" y2="980.6699"/><line style="stroke:#181818;stroke-width:0.5;" x1="556.5" x2="636.4938" y1="988.6699" y2="988.6699"/></g><!--class PersonnageController--><g class="entity" data-entity="PersonnageController" data-source-line="31" data-uid="ent0013" id="entity_PersonnageController"><rect fill="#F1F1F1" height="48" rx="2.5" ry="2.5" style="stroke:#181818;stroke-width:0.5;" width="177.1655" x="264" y="84.6699"/><ellipse cx="279" cy="100.6699" fill="#ADD1B2" rx="11" ry="11" style="stroke:#181818;stroke-width:1;"/><path d="M281.9688,106.3105 Q281.3906,106.6074 280.75,106.748 Q280.1094,106.9043 279.4063,106.9043 Q276.9063,106.9043 275.5781,105.2636 Q274.2656,103.6074 274.2656,100.4824 Q274.2656,97.3574 275.5781,95.7011 Q276.9063,94.0449 279.4063,94.0449 Q280.1094,94.0449 280.75,94.2011 Q281.4063,94.3574 281.9688,94.6543 L281.9688,97.373 Q281.3438,96.7949 280.75,96.5293 Q280.1563,96.248 279.5313,96.248 Q278.1875,96.248 277.5,97.3261 Q276.8125,98.3886 276.8125,100.4824 Q276.8125,102.5761 277.5,103.6543 Q278.1875,104.7168 279.5313,104.7168 Q280.1563,104.7168 280.75,104.4511 Q281.3438,104.1699 281.9688,103.5918 L281.9688,106.3105 Z " fill="#000000"/><text fill="#000000" font-family="sans-serif" font-size="14" lengthAdjust="spacing" textLength="145.1655" x="293" y="106.1019">PersonnageController</text><line style="stroke:#181818;stroke-width:0.5;" x1="265" x2="440.1655" y1="116.6699" y2="116.6699"/><line style="stroke:#181818;stroke-width:0.5;" x1="265" x2="440.1655" y1="124.6699" y2="124.6699"/></g><!--class PartieController--><g class="entity" data-entity="PartieController" data-source-line="32" data-uid="ent0014" id="entity_PartieController"><rect fill="#F1F1F1" height="48" rx="2.5" ry="2.5" style="stroke:#181818;stroke-width:0.5;" width="136.8456" x="284" y="192.6699"/><ellipse cx="299" cy="208.6699" fill="#ADD1B2" rx="11" ry="11" style="stroke:#181818;stroke-width:1;"/><path d="M301.9688,214.3105 Q301.3906,214.6074 300.75,214.748 Q300.1094,214.9043 299.4063,214.9043 Q296.9063,214.9043 295.5781,213.2636 Q294.2656,211.6074 294.2656,208.4824 Q294.2656,205.3574 295.5781,203.7011 Q296.9063,202.0449 299.4063,202.0449 Q300.1094,202.0449 300.75,202.2011 Q301.4063,202.3574 301.9688,202.6543 L301.9688,205.373 Q301.3438,204.7949 300.75,204.5293 Q300.1563,204.248 299.5313,204.248 Q298.1875,204.248 297.5,205.3261 Q296.8125,206.3886 296.8125,208.4824 Q296.8125,210.5761 297.5,211.6543 Q298.1875,212.7168 299.5313,212.7168 Q300.1563,212.7168 300.75,212.4511 Q301.3438,212.1699 301.9688,211.5918 L301.9688,214.3105 Z " fill="#000000"/><text fill="#000000" font-family="sans-serif" font-size="14" lengthAdjust="spacing" textLength="104.8456" x="313" y="214.1019">PartieController</text><line style="stroke:#181818;stroke-width:0.5;" x1="285" x2="419.8456" y1="224.6699" y2="224.6699"/><line style="stroke:#181818;stroke-width:0.5;" x1="285" x2="419.8456" y1="232.6699" y2="232.6699"/></g><!--class BiographieController--><g class="entity" data-entity="BiographieController" data-source-line="33" data-uid="ent0015" id="entity_BiographieController"><rect fill="#F1F1F1" height="48" rx="2.5" ry="2.5" style="stroke:#181818;stroke-width:0.5;" width="170.3755" x="267.5" y="408.6699"/><ellipse cx="282.5" cy="424.6699" fill="#ADD1B2" rx="11" ry="11" style="stroke:#181818;stroke-width:1;"/><path d="M285.4688,430.3105 Q284.8906,430.6074 284.25,430.748 Q283.6094,430.9043 282.9063,430.9043 Q280.4063,430.9043 279.0781,429.2636 Q277.7656,427.6074 277.7656,424.4824 Q277.7656,421.3574 279.0781,419.7011 Q280.4063,418.0449 282.9063,418.0449 Q283.6094,418.0449 284.25,418.2011 Q284.9063,418.3574 285.4688,418.6543 L285.4688,421.373 Q284.8438,420.7949 284.25,420.5293 Q283.6563,420.248 283.0313,420.248 Q281.6875,420.248 281,421.3261 Q280.3125,422.3886 280.3125,424.4824 Q280.3125,426.5761 281,427.6543 Q281.6875,428.7168 283.0313,428.7168 Q283.6563,428.7168 284.25,428.4511 Q284.8438,428.1699 285.4688,427.5918 L285.4688,430.3105 Z " fill="#000000"/><text fill="#000000" font-family="sans-serif" font-size="14" lengthAdjust="spacing" textLength="138.3755" x="296.5" y="430.1019">BiographieController</text><line style="stroke:#181818;stroke-width:0.5;" x1="268.5" x2="436.8755" y1="440.6699" y2="440.6699"/><line style="stroke:#181818;stroke-width:0.5;" x1="268.5" x2="436.8755" y1="448.6699" y2="448.6699"/></g><!--class JoueurController--><g class="entity" data-entity="JoueurController" data-source-line="34" data-uid="ent0016" id="entity_JoueurController"><rect fill="#F1F1F1" height="48" rx="2.5" ry="2.5" style="stroke:#181818;stroke-width:0.5;" width="141.4516" x="282" y="300.6699"/><ellipse cx="297" cy="316.6699" fill="#ADD1B2" rx="11" ry="11" style="stroke:#181818;stroke-width:1;"/><path d="M299.9688,322.3105 Q299.3906,322.6074 298.75,322.748 Q298.1094,322.9043 297.4063,322.9043 Q294.9063,322.9043 293.5781,321.2636 Q292.2656,319.6074 292.2656,316.4824 Q292.2656,313.3574 293.5781,311.7011 Q294.9063,310.0449 297.4063,310.0449 Q298.1094,310.0449 298.75,310.2011 Q299.4063,310.3574 299.9688,310.6543 L299.9688,313.373 Q299.3438,312.7949 298.75,312.5293 Q298.1563,312.248 297.5313,312.248 Q296.1875,312.248 295.5,313.3261 Q294.8125,314.3886 294.8125,316.4824 Q294.8125,318.5761 295.5,319.6543 Q296.1875,320.7168 297.5313,320.7168 Q298.1563,320.7168 298.75,320.4511 Q299.3438,320.1699 299.9688,319.5918 L299.9688,322.3105 Z " fill="#000000"/><text fill="#000000" font-family="sans-serif" font-size="14" lengthAdjust="spacing" textLength="109.4516" x="311" y="322.1019">JoueurController</text><line style="stroke:#181818;stroke-width:0.5;" x1="283" x2="422.4516" y1="332.6699" y2="332.6699"/><line style="stroke:#181818;stroke-width:0.5;" x1="283" x2="422.4516" y1="340.6699" y2="340.6699"/></g><!--class PersonnageView--><g class="entity" data-entity="PersonnageView" data-source-line="39" data-uid="ent0018" id="entity_PersonnageView"><rect fill="#F1F1F1" height="48" rx="2.5" ry="2.5" style="stroke:#181818;stroke-width:0.5;" width="141.8996" x="22" y="84.6699"/><ellipse cx="37" cy="100.6699" fill="#ADD1B2" rx="11" ry="11" style="stroke:#181818;stroke-width:1;"/><path d="M39.9688,106.3105 Q39.3906,106.6074 38.75,106.748 Q38.1094,106.9043 37.4063,106.9043 Q34.9063,106.9043 33.5781,105.2636 Q32.2656,103.6074 32.2656,100.4824 Q32.2656,97.3574 33.5781,95.7011 Q34.9063,94.0449 37.4063,94.0449 Q38.1094,94.0449 38.75,94.2011 Q39.4063,94.3574 39.9688,94.6543 L39.9688,97.373 Q39.3438,96.7949 38.75,96.5293 Q38.1563,96.248 37.5313,96.248 Q36.1875,96.248 35.5,97.3261 Q34.8125,98.3886 34.8125,100.4824 Q34.8125,102.5761 35.5,103.6543 Q36.1875,104.7168 37.5313,104.7168 Q38.1563,104.7168 38.75,104.4511 Q39.3438,104.1699 39.9688,103.5918 L39.9688,106.3105 Z " fill="#000000"/><text fill="#000000" font-family="sans-serif" font-size="14" lengthAdjust="spacing" textLength="109.8996" x="51" y="106.1019">PersonnageView</text><line style="stroke:#181818;stroke-width:0.5;" x1="23" x2="162.8996" y1="116.6699" y2="116.6699"/><line style="stroke:#181818;stroke-width:0.5;" x1="23" x2="162.8996" y1="124.6699" y2="124.6699"/></g><!--class PartieView--><g class="entity" data-entity="PartieView" data-source-line="40" data-uid="ent0019" id="entity_PartieView"><rect fill="#F1F1F1" height="48" rx="2.5" ry="2.5" style="stroke:#181818;stroke-width:0.5;" width="101.5797" x="42" y="192.6699"/><ellipse cx="57" cy="208.6699" fill="#ADD1B2" rx="11" ry="11" style="stroke:#181818;stroke-width:1;"/><path d="M59.9688,214.3105 Q59.3906,214.6074 58.75,214.748 Q58.1094,214.9043 57.4063,214.9043 Q54.9063,214.9043 53.5781,213.2636 Q52.2656,211.6074 52.2656,208.4824 Q52.2656,205.3574 53.5781,203.7011 Q54.9063,202.0449 57.4063,202.0449 Q58.1094,202.0449 58.75,202.2011 Q59.4063,202.3574 59.9688,202.6543 L59.9688,205.373 Q59.3438,204.7949 58.75,204.5293 Q58.1563,204.248 57.5313,204.248 Q56.1875,204.248 55.5,205.3261 Q54.8125,206.3886 54.8125,208.4824 Q54.8125,210.5761 55.5,211.6543 Q56.1875,212.7168 57.5313,212.7168 Q58.1563,212.7168 58.75,212.4511 Q59.3438,212.1699 59.9688,211.5918 L59.9688,214.3105 Z " fill="#000000"/><text fill="#000000" font-family="sans-serif" font-size="14" lengthAdjust="spacing" textLength="69.5797" x="71" y="214.1019">PartieView</text><line style="stroke:#181818;stroke-width:0.5;" x1="43" x2="142.5797" y1="224.6699" y2="224.6699"/><line style="stroke:#181818;stroke-width:0.5;" x1="43" x2="142.5797" y1="232.6699" y2="232.6699"/></g><!--class BiographieView--><g class="entity" data-entity="BiographieView" data-source-line="41" data-uid="ent0020" id="entity_BiographieView"><rect fill="#F1F1F1" height="48" rx="2.5" ry="2.5" style="stroke:#181818;stroke-width:0.5;" width="135.1096" x="25.5" y="516.6699"/><ellipse cx="40.5" cy="532.6699" fill="#ADD1B2" rx="11" ry="11" style="stroke:#181818;stroke-width:1;"/><path d="M43.4688,538.3105 Q42.8906,538.6074 42.25,538.748 Q41.6094,538.9043 40.9063,538.9043 Q38.4063,538.9043 37.0781,537.2636 Q35.7656,535.6074 35.7656,532.4824 Q35.7656,529.3574 37.0781,527.7011 Q38.4063,526.0449 40.9063,526.0449 Q41.6094,526.0449 42.25,526.2011 Q42.9063,526.3574 43.4688,526.6543 L43.4688,529.373 Q42.8438,528.7949 42.25,528.5293 Q41.6563,528.248 41.0313,528.248 Q39.6875,528.248 39,529.3261 Q38.3125,530.3886 38.3125,532.4824 Q38.3125,534.5761 39,535.6543 Q39.6875,536.7168 41.0313,536.7168 Q41.6563,536.7168 42.25,536.4511 Q42.8438,536.1699 43.4688,535.5918 L43.4688,538.3105 Z " fill="#000000"/><text fill="#000000" font-family="sans-serif" font-size="14" lengthAdjust="spacing" textLength="103.1096" x="54.5" y="538.1019">BiographieView</text><line style="stroke:#181818;stroke-width:0.5;" x1="26.5" x2="159.6096" y1="548.6699" y2="548.6699"/><line style="stroke:#181818;stroke-width:0.5;" x1="26.5" x2="159.6096" y1="556.6699" y2="556.6699"/></g><!--class EpisodeView--><g class="entity" data-entity="EpisodeView" data-source-line="42" data-uid="ent0021" id="entity_EpisodeView"><rect fill="#F1F1F1" height="48" rx="2.5" ry="2.5" style="stroke:#181818;stroke-width:0.5;" width="114.5997" x="35.5" y="624.6699"/><ellipse cx="50.5" cy="640.6699" fill="#ADD1B2" rx="11" ry="11" style="stroke:#181818;stroke-width:1;"/><path d="M53.4688,646.3105 Q52.8906,646.6074 52.25,646.748 Q51.6094,646.9043 50.9063,646.9043 Q48.4063,646.9043 47.0781,645.2636 Q45.7656,643.6074 45.7656,640.4824 Q45.7656,637.3574 47.0781,635.7011 Q48.4063,634.0449 50.9063,634.0449 Q51.6094,634.0449 52.25,634.2011 Q52.9063,634.3574 53.4688,634.6543 L53.4688,637.373 Q52.8438,636.7949 52.25,636.5293 Q51.6563,636.248 51.0313,636.248 Q49.6875,636.248 49,637.3261 Q48.3125,638.3886 48.3125,640.4824 Q48.3125,642.5761 49,643.6543 Q49.6875,644.7168 51.0313,644.7168 Q51.6563,644.7168 52.25,644.4511 Q52.8438,644.1699 53.4688,643.5918 L53.4688,646.3105 Z " fill="#000000"/><text fill="#000000" font-family="sans-serif" font-size="14" lengthAdjust="spacing" textLength="82.5997" x="64.5" y="646.1019">EpisodeView</text><line style="stroke:#181818;stroke-width:0.5;" x1="36.5" x2="149.0997" y1="656.6699" y2="656.6699"/><line style="stroke:#181818;stroke-width:0.5;" x1="36.5" x2="149.0997" y1="664.6699" y2="664.6699"/></g><!--class ParagrapheView--><g class="entity" data-entity="ParagrapheView" data-source-line="43" data-uid="ent0022" id="entity_ParagrapheView"><rect fill="#F1F1F1" height="48" rx="2.5" ry="2.5" style="stroke:#181818;stroke-width:0.5;" width="140.2756" x="23" y="732.6699"/><ellipse cx="38" cy="748.6699" fill="#ADD1B2" rx="11" ry="11" style="stroke:#181818;stroke-width:1;"/><path d="M40.9688,754.3105 Q40.3906,754.6074 39.75,754.748 Q39.1094,754.9043 38.4063,754.9043 Q35.9063,754.9043 34.5781,753.2636 Q33.2656,751.6074 33.2656,748.4824 Q33.2656,745.3574 34.5781,743.7011 Q35.9063,742.0449 38.4063,742.0449 Q39.1094,742.0449 39.75,742.2011 Q40.4063,742.3574 40.9688,742.6543 L40.9688,745.373 Q40.3438,744.7949 39.75,744.5293 Q39.1563,744.248 38.5313,744.248 Q37.1875,744.248 36.5,745.3261 Q35.8125,746.3886 35.8125,748.4824 Q35.8125,750.5761 36.5,751.6543 Q37.1875,752.7168 38.5313,752.7168 Q39.1563,752.7168 39.75,752.4511 Q40.3438,752.1699 40.9688,751.5918 L40.9688,754.3105 Z " fill="#000000"/><text fill="#000000" font-family="sans-serif" font-size="14" lengthAdjust="spacing" textLength="108.2756" x="52" y="754.1019">ParagrapheView</text><line style="stroke:#181818;stroke-width:0.5;" x1="24" x2="162.2756" y1="764.6699" y2="764.6699"/><line style="stroke:#181818;stroke-width:0.5;" x1="24" x2="162.2756" y1="772.6699" y2="772.6699"/></g><!--class ConnexionView--><g class="entity" data-entity="ConnexionView" data-source-line="44" data-uid="ent0023" id="entity_ConnexionView"><rect fill="#F1F1F1" height="48" rx="2.5" ry="2.5" style="stroke:#181818;stroke-width:0.5;" width="133.5696" x="26" y="300.6699"/><ellipse cx="41" cy="316.6699" fill="#ADD1B2" rx="11" ry="11" style="stroke:#181818;stroke-width:1;"/><path d="M43.9688,322.3105 Q43.3906,322.6074 42.75,322.748 Q42.1094,322.9043 41.4063,322.9043 Q38.9063,322.9043 37.5781,321.2636 Q36.2656,319.6074 36.2656,316.4824 Q36.2656,313.3574 37.5781,311.7011 Q38.9063,310.0449 41.4063,310.0449 Q42.1094,310.0449 42.75,310.2011 Q43.4063,310.3574 43.9688,310.6543 L43.9688,313.373 Q43.3438,312.7949 42.75,312.5293 Q42.1563,312.248 41.5313,312.248 Q40.1875,312.248 39.5,313.3261 Q38.8125,314.3886 38.8125,316.4824 Q38.8125,318.5761 39.5,319.6543 Q40.1875,320.7168 41.5313,320.7168 Q42.1563,320.7168 42.75,320.4511 Q43.3438,320.1699 43.9688,319.5918 L43.9688,322.3105 Z " fill="#000000"/><text fill="#000000" font-family="sans-serif" font-size="14" lengthAdjust="spacing" textLength="101.5696" x="55" y="322.1019">ConnexionView</text><line style="stroke:#181818;stroke-width:0.5;" x1="27" x2="158.5696" y1="332.6699" y2="332.6699"/><line style="stroke:#181818;stroke-width:0.5;" x1="27" x2="158.5696" y1="340.6699" y2="340.6699"/></g><!--class JoueurView--><g class="entity" data-entity="JoueurView" data-source-line="45" data-uid="ent0024" id="entity_JoueurView"><rect fill="#F1F1F1" height="48" rx="2.5" ry="2.5" style="stroke:#181818;stroke-width:0.5;" width="106.1857" x="40" y="408.6699"/><ellipse cx="55" cy="424.6699" fill="#ADD1B2" rx="11" ry="11" style="stroke:#181818;stroke-width:1;"/><path d="M57.9688,430.3105 Q57.3906,430.6074 56.75,430.748 Q56.1094,430.9043 55.4063,430.9043 Q52.9063,430.9043 51.5781,429.2636 Q50.2656,427.6074 50.2656,424.4824 Q50.2656,421.3574 51.5781,419.7011 Q52.9063,418.0449 55.4063,418.0449 Q56.1094,418.0449 56.75,418.2011 Q57.4063,418.3574 57.9688,418.6543 L57.9688,421.373 Q57.3438,420.7949 56.75,420.5293 Q56.1563,420.248 55.5313,420.248 Q54.1875,420.248 53.5,421.3261 Q52.8125,422.3886 52.8125,424.4824 Q52.8125,426.5761 53.5,427.6543 Q54.1875,428.7168 55.5313,428.7168 Q56.1563,428.7168 56.75,428.4511 Q57.3438,428.1699 57.9688,427.5918 L57.9688,430.3105 Z " fill="#000000"/><text fill="#000000" font-family="sans-serif" font-size="14" lengthAdjust="spacing" textLength="74.1857" x="69" y="430.1019">JoueurView</text><line style="stroke:#181818;stroke-width:0.5;" x1="41" x2="145.1857" y1="440.6699" y2="440.6699"/><line style="stroke:#181818;stroke-width:0.5;" x1="41" x2="145.1857" y1="448.6699" y2="448.6699"/></g><!--link PersonnageController to Personnage--><g class="link" data-entity-1="PersonnageController" data-entity-2="Personnage" data-source-line="49" data-uid="lnk25" id="link_PersonnageController_Personnage"><path codeLine="49" d="M441.28,108.6699 C474.53,108.6699 505.34,108.6699 534.77,108.6699" fill="none" id="PersonnageController-to-Personnage" style="stroke:#181818;stroke-width:1;"/><polygon fill="#181818" points="540.77,108.6699,531.77,104.6699,535.77,108.6699,531.77,112.6699,540.77,108.6699" style="stroke:#181818;stroke-width:1;"/></g><!--link PartieController to Partie--><g class="link" data-entity-1="PartieController" data-entity-2="Partie" data-source-line="50" data-uid="lnk26" id="link_PartieController_Partie"><path codeLine="50" d="M421.06,216.6699 C427.11,216.6699 431,216.6699 431,216.6699 C431,216.6699 431,312.6699 431,312.6699 C431,312.6699 506.37,312.6699 555,312.6699" fill="none" id="PartieController-to-Partie" style="stroke:#181818;stroke-width:1;"/><polygon fill="#181818" points="561,312.6699,552,308.6699,556,312.6699,552,316.6699,561,312.6699" style="stroke:#181818;stroke-width:1;"/></g><!--link BiographieController to Biographie--><g class="link" data-entity-1="BiographieController" data-entity-2="Biographie" data-source-line="51" data-uid="lnk27" id="link_BiographieController_Biographie"><path codeLine="51" d="M437.84,432.6699 C473.3,432.6699 507.31,432.6699 538.28,432.6699" fill="none" id="BiographieController-to-Biographie" style="stroke:#181818;stroke-width:1;"/><polygon fill="#181818" points="544.28,432.6699,535.28,428.6699,539.28,432.6699,535.28,436.6699,544.28,432.6699" style="stroke:#181818;stroke-width:1;"/></g><!--link BiographieController to Episode--><g class="link" data-entity-1="BiographieController" data-entity-2="Episode" data-source-line="52" data-uid="lnk28" id="link_BiographieController_Episode"><path codeLine="52" d="M404,456.8899 C404,530.1999 404,744.6699 404,744.6699 C404,744.6699 491.59,744.6699 548.26,744.6699" fill="none" id="BiographieController-to-Episode" style="stroke:#181818;stroke-width:1;"/><polygon fill="#181818" points="554.26,744.6699,545.26,740.6699,549.26,744.6699,545.26,748.6699,554.26,744.6699" style="stroke:#181818;stroke-width:1;"/></g><!--link BiographieController to Paragraphe--><g class="link" data-entity-1="BiographieController" data-entity-2="Paragraphe" data-source-line="53" data-uid="lnk29" id="link_BiographieController_Paragraphe"><path codeLine="53" d="M370,456.6799 C370,546.3799 370,856.6699 370,856.6699 C370,856.6699 468.94,856.6699 535.96,856.6699" fill="none" id="BiographieController-to-Paragraphe" style="stroke:#181818;stroke-width:1;"/><polygon fill="#181818" points="541.96,856.6699,532.96,852.6699,536.96,856.6699,532.96,860.6699,541.96,856.6699" style="stroke:#181818;stroke-width:1;"/></g><!--link JoueurController to Joueur--><g class="link" data-entity-1="JoueurController" data-entity-2="Joueur" data-source-line="54" data-uid="lnk30" id="link_JoueurController_Joueur"><path codeLine="54" d="M423.37,336.6699 C457.45,336.6699 491,336.6699 491,336.6699 C491,336.6699 491,643.8699 491,643.8699 C491,643.8699 522.44,643.8699 552.71,643.8699" fill="none" id="JoueurController-to-Joueur" style="stroke:#181818;stroke-width:1;"/><polygon fill="#181818" points="558.71,643.8699,549.71,639.8699,553.71,643.8699,549.71,647.8699,558.71,643.8699" style="stroke:#181818;stroke-width:1;"/></g><!--link JoueurController to MeneurJeu--><g class="link" data-entity-1="JoueurController" data-entity-2="MeneurJeu" data-source-line="55" data-uid="lnk31" id="link_JoueurController_MeneurJeu"><path codeLine="55" d="M423.19,324.6699 C480.91,324.6699 553,324.6699 553,324.6699 C553,324.6699 553,278.7499 553,246.9099" fill="none" id="JoueurController-to-MeneurJeu" style="stroke:#181818;stroke-width:1;"/><polygon fill="#181818" points="553,240.9099,549,249.9099,553,245.9099,557,249.9099,553,240.9099" style="stroke:#181818;stroke-width:1;"/></g><!--link PersonnageView to PersonnageController--><g class="link" data-entity-1="PersonnageView" data-entity-2="PersonnageController" data-source-line="57" data-uid="lnk32" id="link_PersonnageView_PersonnageController"><path codeLine="57" d="M164.25,108.6699 C195.01,108.6699 225.32,108.6699 257.8,108.6699" fill="none" id="PersonnageView-to-PersonnageController" style="stroke:#181818;stroke-width:1;"/><polygon fill="#181818" points="263.8,108.6699,254.8,104.6699,258.8,108.6699,254.8,112.6699,263.8,108.6699" style="stroke:#181818;stroke-width:1;"/></g><!--link PartieView to PartieController--><g class="link" data-entity-1="PartieView" data-entity-2="PartieController" data-source-line="58" data-uid="lnk33" id="link_PartieView_PartieController"><path codeLine="58" d="M144.27,216.6699 C184.15,216.6699 233.88,216.6699 277.65,216.6699" fill="none" id="PartieView-to-PartieController" style="stroke:#181818;stroke-width:1;"/><polygon fill="#181818" points="283.65,216.6699,274.65,212.6699,278.65,216.6699,274.65,220.6699,283.65,216.6699" style="stroke:#181818;stroke-width:1;"/></g><!--link BiographieView to BiographieController--><g class="link" data-entity-1="BiographieView" data-entity-2="BiographieController" data-source-line="59" data-uid="lnk34" id="link_BiographieView_BiographieController"><path codeLine="59" d="M153,516.4299 C153,484.5899 153,432.6699 153,432.6699 C153,432.6699 207.09,432.6699 261.32,432.6699" fill="none" id="BiographieView-to-BiographieController" style="stroke:#181818;stroke-width:1;"/><polygon fill="#181818" points="267.32,432.6699,258.32,428.6699,262.32,432.6699,258.32,436.6699,267.32,432.6699" style="stroke:#181818;stroke-width:1;"/></g><!--link ParagrapheView to BiographieController--><g class="link" data-entity-1="ParagrapheView" data-entity-2="BiographieController" data-source-line="60" data-uid="lnk35" id="link_ParagrapheView_BiographieController"><path codeLine="60" d="M163.29,756.6699 C235.05,756.6699 336,756.6699 336,756.6699 C336,756.6699 336,537.8499 336,462.7599" fill="none" id="ParagrapheView-to-BiographieController" style="stroke:#181818;stroke-width:1;"/><polygon fill="#181818" points="336,456.7599,332,465.7599,336,461.7599,340,465.7599,336,456.7599" style="stroke:#181818;stroke-width:1;"/></g><!--link EpisodeView to BiographieController--><g class="link" data-entity-1="EpisodeView" data-entity-2="BiographieController" data-source-line="61" data-uid="lnk36" id="link_EpisodeView_BiographieController"><path codeLine="61" d="M150.66,634.2699 C212.53,634.2699 302,634.2699 302,634.2699 C302,634.2699 302,516.6099 302,462.9899" fill="none" id="EpisodeView-to-BiographieController" style="stroke:#181818;stroke-width:1;"/><polygon fill="#181818" points="302,456.9899,298,465.9899,302,461.9899,306,465.9899,302,456.9899" style="stroke:#181818;stroke-width:1;"/></g><!--link ConnexionView to JoueurController--><g class="link" data-entity-1="ConnexionView" data-entity-2="JoueurController" data-source-line="62" data-uid="lnk37" id="link_ConnexionView_JoueurController"><path codeLine="62" d="M160.17,316.6699 C197.56,316.6699 238.07,316.6699 275.99,316.6699" fill="none" id="ConnexionView-to-JoueurController" style="stroke:#181818;stroke-width:1;"/><polygon fill="#181818" points="281.99,316.6699,272.99,312.6699,276.99,316.6699,272.99,320.6699,281.99,316.6699" style="stroke:#181818;stroke-width:1;"/></g><!--link JoueurView to JoueurController--><g class="link" data-entity-1="JoueurView" data-entity-2="JoueurController" data-source-line="63" data-uid="lnk38" id="link_JoueurView_JoueurController"><path codeLine="63" d="M146.12,420.6699 C187.87,420.6699 239,420.6699 239,420.6699 C239,420.6699 239,332.6699 239,332.6699 C239,332.6699 252.83,332.6699 275.91,332.6699" fill="none" id="JoueurView-to-JoueurController" style="stroke:#181818;stroke-width:1;"/><polygon fill="#181818" points="281.91,332.6699,272.91,328.6699,276.91,332.6699,272.91,336.6699,281.91,332.6699" style="stroke:#181818;stroke-width:1;"/></g><!--link PartieView to Partie--><g class="link" data-entity-1="PartieView" data-entity-2="Partie" data-source-line="66" data-uid="lnk39" id="link_PartieView_Partie"><path codeLine="66" d="M93,240.8299 C93,255.1999 93,270.6699 93,270.6699 C93,270.6699 597,270.6699 597,270.6699 C597,270.6699 597,280.1399 597,294.5099" fill="none" id="PartieView-to-Partie" style="stroke:#181818;stroke-width:1;stroke-dasharray:7,7;"/><polygon fill="#181818" points="597,300.5099,601,291.5099,597,295.5099,593,291.5099,597,300.5099" style="stroke:#181818;stroke-width:1;"/><polygon fill="#000000" points="291.9719,281.0525,283.2889,277.1721,282.6664,283.0169,291.9719,281.0525" style="stroke:#000000;stroke-width:1;"/><text fill="#000000" font-family="sans-serif" font-size="13" lengthAdjust="spacing" textLength="48.724" x="296" y="285.5669">observe</text></g><!--link EpisodeView to Episode--><g class="link" data-entity-1="EpisodeView" data-entity-2="Episode" data-source-line="67" data-uid="lnk40" id="link_EpisodeView_Episode"><path codeLine="67" d="M150.51,663.0699 C170.95,663.0699 189,663.0699 189,663.0699 C189,663.0699 189,768.6699 189,768.6699 C189,768.6699 444.31,768.6699 548.43,768.6699" fill="none" id="EpisodeView-to-Episode" style="stroke:#181818;stroke-width:1;stroke-dasharray:7,7;"/><polygon fill="#181818" points="554.43,768.6699,545.43,764.6699,549.43,768.6699,545.43,772.6699,554.43,768.6699" style="stroke:#181818;stroke-width:1;"/><polygon fill="#000000" points="246.5027,779.8054,238.5141,774.6447,237.0064,780.3259,246.5027,779.8054" style="stroke:#000000;stroke-width:1;"/><text fill="#000000" font-family="sans-serif" font-size="13" lengthAdjust="spacing" textLength="48.724" x="250.67" y="783.5669">observe</text></g><!--link ParagrapheView to Paragraphe--><g class="link" data-entity-1="ParagrapheView" data-entity-2="Paragraphe" data-source-line="68" data-uid="lnk41" id="link_ParagrapheView_Paragraphe"><path codeLine="68" d="M93,780.7099 C93,814.6799 93,872.6699 93,872.6699 C93,872.6699 405.16,872.6699 535.66,872.6699" fill="none" id="ParagrapheView-to-Paragraphe" style="stroke:#181818;stroke-width:1;stroke-dasharray:7,7;"/><polygon fill="#181818" points="541.66,872.6699,532.66,868.6699,536.66,872.6699,532.66,876.6699,541.66,872.6699" style="stroke:#181818;stroke-width:1;"/><polygon fill="#000000" points="218.2455,883.5399,209.9873,878.8226,208.7917,884.5776,218.2455,883.5399" style="stroke:#000000;stroke-width:1;"/><text fill="#000000" font-family="sans-serif" font-size="13" lengthAdjust="spacing" textLength="48.724" x="222.35" y="887.5669">observe</text></g><!--link JoueurView to Joueur--><g class="link" data-entity-1="JoueurView" data-entity-2="Joueur" data-source-line="69" data-uid="lnk42" id="link_JoueurView_Joueur"><path codeLine="69" d="M146.07,444.6699 C178.58,444.6699 214,444.6699 214,444.6699 C214,444.6699 214,653.4699 214,653.4699 C214,653.4699 456.28,653.4699 552.78,653.4699" fill="none" id="JoueurView-to-Joueur" style="stroke:#181818;stroke-width:1;stroke-dasharray:7,7;"/><polygon fill="#181818" points="558.78,653.4699,549.78,649.4699,553.78,653.4699,549.78,657.4699,558.78,653.4699" style="stroke:#181818;stroke-width:1;"/><polygon fill="#000000" points="194.4681,665.6065,187.7637,658.8609,185.0792,664.09,194.4681,665.6065" style="stroke:#000000;stroke-width:1;"/><text fill="#000000" font-family="sans-serif" font-size="13" lengthAdjust="spacing" textLength="48.724" x="199.02" y="668.3669">observe</text></g><!--SRC=[TLHRRjim4FpNAHR9HxuSE7q4Q047g5v50xiEdDRzPgorp9eX1P9ocXO6UeXUmkVmJNAIKA-AbAK_SsQqdDbTMbFD46OYEHuOLKHJmM6s3E3bxp-ua-8dQlWyzRmB68r645A9grAI7W_yU934V6i8Z-5QWnOWQRhHa3GoJsqfpuWaZo09tohCu6eyjb0k4YpGQnjabAD-pX24r1jXhcwf5IDAmH-30VXajKsbo7aI22OadAy_hCdweUA4J53M-1l_El379HuBhk_fRuIhj-QyTsfdfXv9yLu_cr150C9JXev4RKWYdYXFOKsOmg8jaya4PlCmcXQ_lBe6d9c68Zk3yp2Cup0qZitbjVjRaMCkBM26t02tc5lO7P6QeWsWL89pKzm2F-sGwrpQa4z5AacsSJwECggC8RS-ANKLY3n_XE-Sximjthx95So_VblCfzDeuOOBJ1UbO0obIHZ7qJl_lPEmzTegJxBrKgtxNhfgdKNzjxhy4lrmJIufFfK3YA8u7h1NQ4wCTS3MKeUectfQesviXp2kEVuoZwA3LvbASD-yimMoyYKgo2JbAvgPTwRAXzRNMaFSsFlHxM_5LmlLr-2Ij_PcKDEiqQ30sghkg4g-NlrUhdq5dZkWJZnh-ksyh8WMxuwk4zEjOyriM6TDV5ZapDbARKdQaVVp9rkGN8W7XN9N_JsNUz16lxnieiD7g7G8DuxPGbAV7KqdU5sfXXobPRbGLKTRyGe0]--></g></svg>