<svg xmlns="http://www.w3.org/2000/svg" xmlns:xlink="http://www.w3.org/1999/xlink" contentStyleType="text/css" data-diagram-type="CLASS" height="564px" preserveAspectRatio="none" style="width:1706px;height:564px;background:#FFFFFF;" version="1.1" viewBox="0 0 1706 564" width="1706px" zoomAndPan="magnify"><defs/><g><!--class Univers--><g class="entity" data-entity="Univers" data-source-line="8" data-uid="ent0002" id="entity_Univers"><rect fill="#F1F1F1" height="48" rx="2.5" ry="2.5" style="stroke:#181818;stroke-width:0.5;" width="81.9938" x="1055" y="471"/><ellipse cx="1070" cy="487" fill="#EB937F" rx="11" ry="11" style="stroke:#181818;stroke-width:1;"/><path d="M1074.1094,493 L1066.3906,493 L1066.3906,480.6094 L1074.1094,480.6094 L1074.1094,482.7656 L1068.8438,482.7656 L1068.8438,485.4375 L1073.6094,485.4375 L1073.6094,487.5938 L1068.8438,487.5938 L1068.8438,490.8438 L1074.1094,490.8438 L1074.1094,493 Z " fill="#000000"/><text fill="#000000" font-family="sans-serif" font-size="14" lengthAdjust="spacing" textLength="49.9938" x="1084" y="492.432">Univers</text><line style="stroke:#181818;stroke-width:0.5;" x1="1056" x2="1135.9938" y1="503" y2="503"/><line style="stroke:#181818;stroke-width:0.5;" x1="1056" x2="1135.9938" y1="511" y2="511"/></g><!--class Personnage--><g class="entity" data-entity="Personnage" data-source-line="11" data-uid="ent0003" id="entity_Personnage"><rect fill="#F1F1F1" height="200.5433" rx="2.5" ry="2.5" style="stroke:#181818;stroke-width:0.5;" width="318.3188" x="1155" y="163"/><ellipse cx="1270.4155" cy="179" fill="#ADD1B2" rx="11" ry="11" style="stroke:#181818;stroke-width:1;"/><path d="M1273.3843,184.6406 Q1272.8062,184.9375 1272.1655,185.0781 Q1271.5249,185.2344 1270.8218,185.2344 Q1268.3218,185.2344 1266.9937,183.5938 Q1265.6812,181.9375 1265.6812,178.8125 Q1265.6812,175.6875 1266.9937,174.0313 Q1268.3218,172.375 1270.8218,172.375 Q1271.5249,172.375 1272.1655,172.5313 Q1272.8218,172.6875 1273.3843,172.9844 L1273.3843,175.7031 Q1272.7593,175.125 1272.1655,174.8594 Q1271.5718,174.5781 1270.9468,174.5781 Q1269.603,174.5781 1268.9155,175.6563 Q1268.228,176.7188 1268.228,178.8125 Q1268.228,180.9063 1268.9155,181.9844 Q1269.603,183.0469 1270.9468,183.0469 Q1271.5718,183.0469 1272.1655,182.7813 Q1272.7593,182.5 1273.3843,181.9219 L1273.3843,184.6406 Z " fill="#000000"/><text fill="#000000" font-family="sans-serif" font-size="14" lengthAdjust="spacing" textLength="78.9877" x="1290.9155" y="184.432">Personnage</text><line style="stroke:#181818;stroke-width:0.5;" x1="1156" x2="1472.3188" y1="195" y2="195"/><text fill="#000000" font-family="sans-serif" font-size="14" lengthAdjust="spacing" textLength="73.2477" x="1161" y="213.9659">String nom</text><text fill="#000000" font-family="sans-serif" font-size="14" lengthAdjust="spacing" textLength="112.7556" x="1161" y="233.0339">String profession</text><text fill="#000000" font-family="sans-serif" font-size="14" lengthAdjust="spacing" textLength="138.7115" x="1161" y="252.1018">String naissanceDate</text><text fill="#000000" font-family="sans-serif" font-size="14" lengthAdjust="spacing" textLength="84.0977" x="1161" y="271.1697">String image</text><text fill="#000000" font-family="sans-serif" font-size="14" lengthAdjust="spacing" textLength="102.0456" x="1161" y="290.2376">Univers univers</text><line style="stroke:#181818;stroke-width:0.5;" x1="1156" x2="1472.3188" y1="298.3396" y2="298.3396"/><text fill="#000000" font-family="sans-serif" font-size="14" lengthAdjust="spacing" textLength="269.247" x="1161" y="317.3055">void setProfession(String newProfession)</text><text fill="#000000" font-family="sans-serif" font-size="14" lengthAdjust="spacing" textLength="108.5836" x="1161" y="336.3734">void supprimer()</text><text fill="#000000" font-family="sans-serif" font-size="14" lengthAdjust="spacing" textLength="306.3188" x="1161" y="355.4414">void setMeneurjeu(MeneurJeu newMeneurJeu)</text></g><!--class Joueur--><g class="entity" data-entity="Joueur" data-source-line="21" data-uid="ent0004" id="entity_Joueur"><rect fill="#F1F1F1" height="200.5433" rx="2.5" ry="2.5" style="stroke:#181818;stroke-width:0.5;" width="757.7354" x="7" y="163"/><ellipse cx="359.9808" cy="179" fill="#ADD1B2" rx="11" ry="11" style="stroke:#181818;stroke-width:1;"/><path d="M362.9495,184.6406 Q362.3714,184.9375 361.7308,185.0781 Q361.0901,185.2344 360.387,185.2344 Q357.887,185.2344 356.5589,183.5938 Q355.2464,181.9375 355.2464,178.8125 Q355.2464,175.6875 356.5589,174.0313 Q357.887,172.375 360.387,172.375 Q361.0901,172.375 361.7308,172.5313 Q362.387,172.6875 362.9495,172.9844 L362.9495,175.7031 Q362.3245,175.125 361.7308,174.8594 Q361.137,174.5781 360.512,174.5781 Q359.1683,174.5781 358.4808,175.6563 Q357.7933,176.7188 357.7933,178.8125 Q357.7933,180.9063 358.4808,181.9844 Q359.1683,183.0469 360.512,183.0469 Q361.137,183.0469 361.7308,182.7813 Q362.3245,182.5 362.9495,181.9219 L362.9495,184.6406 Z " fill="#000000"/><text fill="#000000" font-family="sans-serif" font-size="14" lengthAdjust="spacing" textLength="43.2738" x="380.4808" y="184.432">Joueur</text><line style="stroke:#181818;stroke-width:0.5;" x1="8" x2="763.7354" y1="195" y2="195"/><text fill="#000000" font-family="sans-serif" font-size="14" lengthAdjust="spacing" textLength="73.2477" x="13" y="213.9659">String nom</text><line style="stroke:#181818;stroke-width:0.5;" x1="8" x2="763.7354" y1="222.0679" y2="222.0679"/><text fill="#000000" font-family="sans-serif" font-size="14" lengthAdjust="spacing" textLength="206.2612" x="13" y="241.0339">void cederPersonnage(Joueur j)</text><text fill="#000000" font-family="sans-serif" font-size="14" lengthAdjust="spacing" textLength="745.7354" x="13" y="260.1018">Personnage creerPersonnage(String nom, String naissanceDate, String profession, Biographie brographieInitiale)</text><text fill="#000000" font-family="sans-serif" font-size="14" lengthAdjust="spacing" textLength="430.0225" x="13" y="279.1697">Partie proposerPartie(String titre, Univers univers, String resume)</text><text fill="#000000" font-family="sans-serif" font-size="14" lengthAdjust="spacing" textLength="267.833" x="13" y="298.2376">void proposerPersonnage(MeneurJeu m)</text><text fill="#000000" font-family="sans-serif" font-size="14" lengthAdjust="spacing" textLength="199.2332" x="13" y="317.3055">void validerEpisode(Episode e)</text><text fill="#000000" font-family="sans-serif" font-size="14" lengthAdjust="spacing" textLength="185.9613" x="13" y="336.3734">void accepterPartie(Partie p)</text><text fill="#000000" font-family="sans-serif" font-size="14" lengthAdjust="spacing" textLength="328.4668" x="13" y="355.4414">void accepterPersonnage(Personage personnage)</text></g><!--class Partie--><g class="entity" data-entity="Partie" data-source-line="31" data-uid="ent0005" id="entity_Partie"><rect fill="#F1F1F1" height="143.3396" rx="2.5" ry="2.5" style="stroke:#181818;stroke-width:0.5;" width="290.8089" x="814.5" y="192"/><ellipse cx="936.3205" cy="208" fill="#ADD1B2" rx="11" ry="11" style="stroke:#181818;stroke-width:1;"/><path d="M939.2893,213.6406 Q938.7112,213.9375 938.0705,214.0781 Q937.4299,214.2344 936.7268,214.2344 Q934.2268,214.2344 932.8987,212.5938 Q931.5862,210.9375 931.5862,207.8125 Q931.5862,204.6875 932.8987,203.0313 Q934.2268,201.375 936.7268,201.375 Q937.4299,201.375 938.0705,201.5313 Q938.7268,201.6875 939.2893,201.9844 L939.2893,204.7031 Q938.6643,204.125 938.0705,203.8594 Q937.4768,203.5781 936.8518,203.5781 Q935.508,203.5781 934.8205,204.6563 Q934.133,205.7188 934.133,207.8125 Q934.133,209.9063 934.8205,210.9844 Q935.508,212.0469 936.8518,212.0469 Q937.4768,212.0469 938.0705,211.7813 Q938.6643,211.5 939.2893,210.9219 L939.2893,213.6406 Z " fill="#000000"/><text fill="#000000" font-family="sans-serif" font-size="14" lengthAdjust="spacing" textLength="38.6679" x="956.8205" y="213.432">Partie</text><line style="stroke:#181818;stroke-width:0.5;" x1="815.5" x2="1104.3089" y1="224" y2="224"/><text fill="#000000" font-family="sans-serif" font-size="14" lengthAdjust="spacing" textLength="93.7296" x="820.5" y="242.9659">boolean jouee</text><line style="stroke:#181818;stroke-width:0.5;" x1="815.5" x2="1104.3089" y1="251.0679" y2="251.0679"/><text fill="#000000" font-family="sans-serif" font-size="14" lengthAdjust="spacing" textLength="84.3217" x="820.5" y="270.0339">void valider()</text><text fill="#000000" font-family="sans-serif" font-size="14" lengthAdjust="spacing" textLength="108.5836" x="820.5" y="289.1018">void supprimer()</text><text fill="#000000" font-family="sans-serif" font-size="14" lengthAdjust="spacing" textLength="257.389" x="820.5" y="308.1697">void ajouterPersonnage(Personnage p)</text><text fill="#000000" font-family="sans-serif" font-size="14" lengthAdjust="spacing" textLength="278.8089" x="820.5" y="327.2376">void supprimerPersonnage(Personnage p)</text></g><!--class Aventure--><g class="entity" data-entity="Aventure" data-source-line="38" data-uid="ent0006" id="entity_Aventure"><rect fill="#F1F1F1" height="48" rx="2.5" ry="2.5" style="stroke:#181818;stroke-width:0.5;" width="91.9898" x="1268" y="471"/><ellipse cx="1283" cy="487" fill="#ADD1B2" rx="11" ry="11" style="stroke:#181818;stroke-width:1;"/><path d="M1285.9688,492.6406 Q1285.3906,492.9375 1284.75,493.0781 Q1284.1094,493.2344 1283.4063,493.2344 Q1280.9063,493.2344 1279.5781,491.5938 Q1278.2656,489.9375 1278.2656,486.8125 Q1278.2656,483.6875 1279.5781,482.0313 Q1280.9063,480.375 1283.4063,480.375 Q1284.1094,480.375 1284.75,480.5313 Q1285.4063,480.6875 1285.9688,480.9844 L1285.9688,483.7031 Q1285.3438,483.125 1284.75,482.8594 Q1284.1563,482.5781 1283.5313,482.5781 Q1282.1875,482.5781 1281.5,483.6563 Q1280.8125,484.7188 1280.8125,486.8125 Q1280.8125,488.9063 1281.5,489.9844 Q1282.1875,491.0469 1283.5313,491.0469 Q1284.1563,491.0469 1284.75,490.7813 Q1285.3438,490.5 1285.9688,489.9219 L1285.9688,492.6406 Z " fill="#000000"/><text fill="#000000" font-family="sans-serif" font-size="14" lengthAdjust="spacing" textLength="59.9898" x="1297" y="492.432">Aventure</text><line style="stroke:#181818;stroke-width:0.5;" x1="1269" x2="1358.9898" y1="503" y2="503"/><line style="stroke:#181818;stroke-width:0.5;" x1="1269" x2="1358.9898" y1="511" y2="511"/></g><!--class Biographie--><g class="entity" data-entity="Biographie" data-source-line="41" data-uid="ent0007" id="entity_Biographie"><rect fill="#F1F1F1" height="124.2717" rx="2.5" ry="2.5" style="stroke:#181818;stroke-width:0.5;" width="232.3031" x="1438" y="433"/><ellipse cx="1513.8027" cy="449" fill="#ADD1B2" rx="11" ry="11" style="stroke:#181818;stroke-width:1;"/><path d="M1516.7715,454.6406 Q1516.1933,454.9375 1515.5527,455.0781 Q1514.9121,455.2344 1514.209,455.2344 Q1511.709,455.2344 1510.3808,453.5938 Q1509.0683,451.9375 1509.0683,448.8125 Q1509.0683,445.6875 1510.3808,444.0313 Q1511.709,442.375 1514.209,442.375 Q1514.9121,442.375 1515.5527,442.5313 Q1516.209,442.6875 1516.7715,442.9844 L1516.7715,445.7031 Q1516.1465,445.125 1515.5527,444.8594 Q1514.959,444.5781 1514.334,444.5781 Q1512.9902,444.5781 1512.3027,445.6563 Q1511.6152,446.7188 1511.6152,448.8125 Q1511.6152,450.9063 1512.3027,451.9844 Q1512.9902,453.0469 1514.334,453.0469 Q1514.959,453.0469 1515.5527,452.7813 Q1516.1465,452.5 1516.7715,451.9219 L1516.7715,454.6406 Z " fill="#000000"/><text fill="#000000" font-family="sans-serif" font-size="14" lengthAdjust="spacing" textLength="72.1977" x="1534.3027" y="454.432">Biographie</text><line style="stroke:#181818;stroke-width:0.5;" x1="1439" x2="1669.3031" y1="465" y2="465"/><text fill="#000000" font-family="sans-serif" font-size="14" lengthAdjust="spacing" textLength="70.4337" x="1444" y="483.9659">String titre</text><line style="stroke:#181818;stroke-width:0.5;" x1="1439" x2="1669.3031" y1="492.0679" y2="492.0679"/><text fill="#000000" font-family="sans-serif" font-size="14" lengthAdjust="spacing" textLength="202.0752" x="1444" y="511.0339">void ajouterEpisode(Episode e)</text><text fill="#000000" font-family="sans-serif" font-size="14" lengthAdjust="spacing" textLength="220.3031" x="1444" y="530.1018">void afficherBiographiePublique()</text><text fill="#000000" font-family="sans-serif" font-size="14" lengthAdjust="spacing" textLength="202.9572" x="1444" y="549.1697">void afficherBiographiePrivee()</text></g><!--class Episode--><g class="entity" data-entity="Episode" data-source-line="47" data-uid="ent0008" id="entity_Episode"><rect fill="#F1F1F1" height="143.3396" rx="2.5" ry="2.5" style="stroke:#181818;stroke-width:0.5;" width="176.5274" x="1522.5" y="192"/><ellipse cx="1580.6698" cy="208" fill="#ADD1B2" rx="11" ry="11" style="stroke:#181818;stroke-width:1;"/><path d="M1583.6385,213.6406 Q1583.0604,213.9375 1582.4198,214.0781 Q1581.7792,214.2344 1581.076,214.2344 Q1578.576,214.2344 1577.2479,212.5938 Q1575.9354,210.9375 1575.9354,207.8125 Q1575.9354,204.6875 1577.2479,203.0313 Q1578.576,201.375 1581.076,201.375 Q1581.7792,201.375 1582.4198,201.5313 Q1583.076,201.6875 1583.6385,201.9844 L1583.6385,204.7031 Q1583.0135,204.125 1582.4198,203.8594 Q1581.826,203.5781 1581.201,203.5781 Q1579.8573,203.5781 1579.1698,204.6563 Q1578.4823,205.7188 1578.4823,207.8125 Q1578.4823,209.9063 1579.1698,210.9844 Q1579.8573,212.0469 1581.201,212.0469 Q1581.826,212.0469 1582.4198,211.7813 Q1583.0135,211.5 1583.6385,210.9219 L1583.6385,213.6406 Z " fill="#000000"/><text fill="#000000" font-family="sans-serif" font-size="14" lengthAdjust="spacing" textLength="51.6878" x="1601.1698" y="213.432">Episode</text><line style="stroke:#181818;stroke-width:0.5;" x1="1523.5" x2="1698.0274" y1="224" y2="224"/><text fill="#000000" font-family="sans-serif" font-size="14" lengthAdjust="spacing" textLength="70.4337" x="1528.5" y="242.9659">String titre</text><line style="stroke:#181818;stroke-width:0.5;" x1="1523.5" x2="1698.0274" y1="251.0679" y2="251.0679"/><text fill="#000000" font-family="sans-serif" font-size="14" lengthAdjust="spacing" textLength="164.5274" x="1528.5" y="270.0339">void ajouterParagraphe()</text><text fill="#000000" font-family="sans-serif" font-size="14" lengthAdjust="spacing" textLength="122.5975" x="1528.5" y="289.1018">void sauvegarder()</text><text fill="#000000" font-family="sans-serif" font-size="14" lengthAdjust="spacing" textLength="108.5836" x="1528.5" y="308.1697">void supprimer()</text><text fill="#000000" font-family="sans-serif" font-size="14" lengthAdjust="spacing" textLength="84.3217" x="1528.5" y="327.2376">void valider()</text></g><!--class Paragraphe--><g class="entity" data-entity="Paragraphe" data-source-line="54" data-uid="ent0009" id="entity_Paragraphe"><rect fill="#F1F1F1" height="105.2038" rx="2.5" ry="2.5" style="stroke:#181818;stroke-width:0.5;" width="154.5754" x="1533.5" y="7"/><ellipse cx="1568.8453" cy="23" fill="#ADD1B2" rx="11" ry="11" style="stroke:#181818;stroke-width:1;"/><path d="M1571.814,28.6406 Q1571.2359,28.9375 1570.5953,29.0781 Q1569.9546,29.2344 1569.2515,29.2344 Q1566.7515,29.2344 1565.4234,27.5938 Q1564.1109,25.9375 1564.1109,22.8125 Q1564.1109,19.6875 1565.4234,18.0313 Q1566.7515,16.375 1569.2515,16.375 Q1569.9546,16.375 1570.5953,16.5313 Q1571.2515,16.6875 1571.814,16.9844 L1571.814,19.7031 Q1571.189,19.125 1570.5953,18.8594 Q1570.0015,18.5781 1569.3765,18.5781 Q1568.0328,18.5781 1567.3453,19.6563 Q1566.6578,20.7188 1566.6578,22.8125 Q1566.6578,24.9063 1567.3453,25.9844 Q1568.0328,27.0469 1569.3765,27.0469 Q1570.0015,27.0469 1570.5953,26.7813 Q1571.189,26.5 1571.814,25.9219 L1571.814,28.6406 Z " fill="#000000"/><text fill="#000000" font-family="sans-serif" font-size="14" lengthAdjust="spacing" textLength="77.3637" x="1587.3664" y="28.432">Paragraphe</text><line style="stroke:#181818;stroke-width:0.5;" x1="1534.5" x2="1687.0754" y1="39" y2="39"/><text fill="#000000" font-family="sans-serif" font-size="14" lengthAdjust="spacing" textLength="70.4337" x="1539.5" y="57.9659">String titre</text><text fill="#000000" font-family="sans-serif" font-size="14" lengthAdjust="spacing" textLength="113.3016" x="1539.5" y="77.0339">boolean isPrivate</text><line style="stroke:#181818;stroke-width:0.5;" x1="1534.5" x2="1687.0754" y1="85.1358" y2="85.1358"/><text fill="#000000" font-family="sans-serif" font-size="14" lengthAdjust="spacing" textLength="142.5754" x="1539.5" y="104.1018">void rendrePublique()</text></g><g class="entity" data-entity="diamond1" data-uid="ent0010" id="entity_diamond1"><polygon fill="#F1F1F1" points="959,483,971,495,959,507,947,495,959,483" style="stroke:#181818;stroke-width:0.5;"/></g><!--link Joueur to diamond1--><g class="link" data-entity-1="Joueur" data-entity-2="diamond1" data-source-line="61" data-uid="lnk11" id="link_Joueur_diamond1"><path codeLine="61" d="M634.83,364.16 C769.53,418.11 915.54,476.59 950.94,490.77" fill="none" id="Joueur-diamond1" style="stroke:#181818;stroke-width:1;"/><text fill="#000000" font-family="sans-serif" font-size="13" lengthAdjust="spacing" textLength="18.083" x="632.9553" y="385.4303">0,*</text></g><!--link Partie to diamond1--><g class="link" data-entity-1="Partie" data-entity-2="diamond1" data-source-line="62" data-uid="lnk12" id="link_Partie_diamond1"><path codeLine="62" d="M959.69,335.23 C959.46,388.44 959.16,456.53 959.05,482.89" fill="none" id="Partie-diamond1" style="stroke:#181818;stroke-width:1;"/><text fill="#000000" font-family="sans-serif" font-size="13" lengthAdjust="spacing" textLength="7.436" x="952.3294" y="357.4196">1</text></g><!--link Personnage to diamond1--><g class="link" data-entity-1="Personnage" data-entity-2="diamond1" data-source-line="63" data-uid="lnk13" id="link_Personnage_diamond1"><path codeLine="63" d="M1154.64,352.45 C1113.15,377.12 1069.12,404.92 1030,433 C1004.13,451.58 976.25,477.46 964.61,488.58" fill="none" id="Personnage-diamond1" style="stroke:#181818;stroke-width:1;"/><text fill="#000000" font-family="sans-serif" font-size="13" lengthAdjust="spacing" textLength="18.083" x="1129.0058" y="353.0187">0,*</text></g><!--link Episode to Biographie--><g class="link" data-entity-1="Episode" data-entity-2="Biographie" data-source-line="65" data-uid="lnk14" id="link_Episode_Biographie"><path codeLine="65" d="M1593.43,335.23 C1585.68,366.44 1579.5531,391.134 1572.0931,421.164" fill="none" id="Episode-to-Biographie" style="stroke:#181818;stroke-width:1;"/><polygon fill="#181818" points="1569.2,432.81,1574.5286,427.9513,1572.0931,421.164,1566.7645,426.0226,1569.2,432.81" style="stroke:#181818;stroke-width:1;"/></g><!--link Paragraphe to Episode--><g class="link" data-entity-1="Paragraphe" data-entity-2="Episode" data-source-line="66" data-uid="lnk15" id="link_Paragraphe_Episode"><path codeLine="66" d="M1611,112.26 C1611,136.45 1611,153.64 1611,179.83" fill="none" id="Paragraphe-to-Episode" style="stroke:#181818;stroke-width:1;"/><polygon fill="#181818" points="1611,191.83,1615,185.83,1611,179.83,1607,185.83,1611,191.83" style="stroke:#181818;stroke-width:1;"/></g><!--link Episode to Aventure--><g class="link" data-entity-1="Episode" data-entity-2="Aventure" data-source-line="68" data-uid="lnk16" id="link_Episode_Aventure"><path codeLine="68" d="M1532.89,335.19 C1521.36,345.06 1509.49,354.93 1498,364 C1447.82,403.64 1391.6654,442.3314 1354.0354,467.5314" fill="none" id="Episode-to-Aventure" style="stroke:#181818;stroke-width:1;"/><polygon fill="#181818" points="1349.05,470.87,1358.7538,469.1857,1353.2045,468.0878,1354.3023,462.5385,1349.05,470.87" style="stroke:#181818;stroke-width:1;"/><text fill="#000000" font-family="sans-serif" font-size="13" lengthAdjust="spacing" textLength="35.672" x="1464" y="403.897">est li&#233;</text><text fill="#000000" font-family="sans-serif" font-size="13" lengthAdjust="spacing" textLength="18.083" x="1338.0635" y="459.0926">0,*</text></g><!--link Partie to Aventure--><g class="link" data-entity-1="Partie" data-entity-2="Aventure" data-source-line="69" data-uid="lnk17" id="link_Partie_Aventure"><path codeLine="69" d="M1069.1,335.23 C1140.61,381.59 1224.5156,435.9859 1273.1156,467.4959" fill="none" id="Partie-to-Aventure" style="stroke:#181818;stroke-width:1;"/><polygon fill="#181818" points="1278.15,470.76,1272.7744,462.5076,1273.9546,468.0399,1268.4223,469.2201,1278.15,470.76" style="stroke:#181818;stroke-width:1;"/><text fill="#000000" font-family="sans-serif" font-size="13" lengthAdjust="spacing" textLength="70.8501" x="1180" y="403.897">se rapporte</text></g><!--link Personnage to Aventure--><g class="link" data-entity-1="Personnage" data-entity-2="Aventure" data-source-line="71" data-uid="lnk18" id="link_Personnage_Aventure"><path codeLine="71" d="M1314,364.16 C1314,403.6 1314,439.45 1314,464.66" fill="none" id="Personnage-to-Aventure" style="stroke:#181818;stroke-width:1;"/><polygon fill="#181818" points="1314,470.66,1318,461.66,1314,465.66,1310,461.66,1314,470.66" style="stroke:#181818;stroke-width:1;"/><text fill="#000000" font-family="sans-serif" font-size="13" lengthAdjust="spacing" textLength="18.083" x="1295.3874" y="385.4303">1,*</text><text fill="#000000" font-family="sans-serif" font-size="13" lengthAdjust="spacing" textLength="18.083" x="1293.7057" y="459.2322">1,*</text></g><!--link Personnage to Biographie--><g class="link" data-entity-1="Personnage" data-entity-2="Biographie" data-source-line="72" data-uid="lnk19" id="link_Personnage_Biographie"><path codeLine="72" d="M1433.52,364.1 C1442.62,372.38 1451.54,380.74 1460,389 C1474.01,402.67 1484.4264,413.5901 1497.6464,428.2801" fill="none" id="Personnage-to-Biographie" style="stroke:#181818;stroke-width:1;"/><polygon fill="#181818" points="1501.66,432.74,1498.6128,423.3744,1498.3153,429.0234,1492.6663,428.7259,1501.66,432.74" style="stroke:#181818;stroke-width:1;"/><text fill="#000000" font-family="sans-serif" font-size="13" lengthAdjust="spacing" textLength="7.436" x="1434.319" y="385.3662">1</text><text fill="#000000" font-family="sans-serif" font-size="13" lengthAdjust="spacing" textLength="7.436" x="1488.0829" y="421.0396">1</text></g><!--link Partie to Univers--><g class="link" data-entity-1="Partie" data-entity-2="Univers" data-source-line="73" data-uid="lnk20" id="link_Partie_Univers"><path codeLine="73" d="M1001.91,335.23 C1029.39,381.59 1063.55,439.25 1082.23,470.76" fill="none" id="Partie-Univers" style="stroke:#181818;stroke-width:1;stroke-dasharray:7,7;"/></g><!--link Personnage to Univers--><g class="link" data-entity-1="Personnage" data-entity-2="Univers" data-source-line="74" data-uid="lnk21" id="link_Personnage_Univers"><path codeLine="74" d="M1183.65,364.27 C1175.33,372.31 1167.36,380.59 1160,389 C1137.78,414.38 1118.61,448.43 1107.19,470.78" fill="none" id="Personnage-Univers" style="stroke:#181818;stroke-width:1;stroke-dasharray:7,7;"/></g><!--SRC=[ZLJ1Rjim3BthAuXSwXH9qHnssQ50X-wm0WCA5Fi0nMOIfRQaKLAAOUW7xJlsOwDjoLAQjAilaiZ7noTIvWKibqkuKuIrLqO3Ua1dPOqTQj_xn0MqkF7W3P3QxZmq2IlSaz9Mako0f7voQE7JTM7Kfi5el81iRfL6_yiY6F8xK-0VTx8npqflOIDRXqAW3XtyqEg0vE2t42-YRgLpyC1dexNS8bk1lqTFVPWsNNcqP3ReNA-q14dbdDGrtacFfKDrJ3WOKiemheFjO5G33lt3H5ebGdpEnda13jQIwf2g-H73TzGOQ8-X6dVt67gEwJ2Vxdbl0flEtt5Wgx51ojMeOi1-J5YKgIOy0cQonTcwB4vhk80locn9sfr2M5FQVjFAAzbYJ2d9ivkZh76SSJYcR5vvOkPNrPrI4RhGOL6hYINhpXNh2k11jeeByTKgnq-kYYkKNBAkqVf9KT9v3f6pZTk-VdOovkv4Zh4xQsDQb1hst04yKLRzxrb8ZZkNUqn-BlfDQ99tU-0VE12MFqxHmQD7DNJcHCsxzTniLBr3oemFOTsgdm6hzr74JUynIL8Y_u0UBhWSQ8voE1aEk9NqaJBdTXHDZ9nlAKYTLQxNdcR6G4Ue6oel_Y8Q9JkZ6uZhIeZuJywk5vSpdgVP4z_FRFNAdBjv6YDIkPRBowARehX6xuce4duJsQPdyPddlETX_FTFKjA32hT37klMyfHcebBLQbHr4tSfv1Wp86R0Q_7eKgQhgpG5og32-Wy0]--></g></svg>