<svg xmlns="http://www.w3.org/2000/svg" xmlns:xlink="http://www.w3.org/1999/xlink" contentStyleType="text/css" data-diagram-type="CLASS" height="564px" preserveAspectRatio="none" style="width:1819px;height:564px;background:#FFFFFF;" version="1.1" viewBox="0 0 1819 564" width="1819px" zoomAndPan="magnify"><defs/><g><!--class Univers--><g class="entity" data-entity="Univers" data-source-line="8" data-uid="ent0002" id="entity_Univers"><rect fill="#F1F1F1" height="48" rx="2.5" ry="2.5" style="stroke:#181818;stroke-width:0.5;" width="81.9938" x="466" y="471"/><ellipse cx="481" cy="487" fill="#EB937F" rx="11" ry="11" style="stroke:#181818;stroke-width:1;"/><path d="M485.1094,493 L477.3906,493 L477.3906,480.6094 L485.1094,480.6094 L485.1094,482.7656 L479.8438,482.7656 L479.8438,485.4375 L484.6094,485.4375 L484.6094,487.5938 L479.8438,487.5938 L479.8438,490.8438 L485.1094,490.8438 L485.1094,493 Z " fill="#000000"/><text fill="#000000" font-family="sans-serif" font-size="14" lengthAdjust="spacing" textLength="49.9938" x="495" y="492.432">Univers</text><line style="stroke:#181818;stroke-width:0.5;" x1="467" x2="546.9938" y1="503" y2="503"/><line style="stroke:#181818;stroke-width:0.5;" x1="467" x2="546.9938" y1="511" y2="511"/></g><!--class Personnage--><g class="entity" data-entity="Personnage" data-source-line="11" data-uid="ent0003" id="entity_Personnage"><rect fill="#F1F1F1" height="200.5433" rx="2.5" ry="2.5" style="stroke:#181818;stroke-width:0.5;" width="318.3188" x="245" y="163"/><ellipse cx="360.4155" cy="179" fill="#ADD1B2" rx="11" ry="11" style="stroke:#181818;stroke-width:1;"/><path d="M363.3843,184.6406 Q362.8062,184.9375 362.1655,185.0781 Q361.5249,185.2344 360.8218,185.2344 Q358.3218,185.2344 356.9937,183.5938 Q355.6812,181.9375 355.6812,178.8125 Q355.6812,175.6875 356.9937,174.0313 Q358.3218,172.375 360.8218,172.375 Q361.5249,172.375 362.1655,172.5313 Q362.8218,172.6875 363.3843,172.9844 L363.3843,175.7031 Q362.7593,175.125 362.1655,174.8594 Q361.5718,174.5781 360.9468,174.5781 Q359.603,174.5781 358.9155,175.6563 Q358.228,176.7188 358.228,178.8125 Q358.228,180.9063 358.9155,181.9844 Q359.603,183.0469 360.9468,183.0469 Q361.5718,183.0469 362.1655,182.7813 Q362.7593,182.5 363.3843,181.9219 L363.3843,184.6406 Z " fill="#000000"/><text fill="#000000" font-family="sans-serif" font-size="14" lengthAdjust="spacing" textLength="78.9877" x="380.9155" y="184.432">Personnage</text><line style="stroke:#181818;stroke-width:0.5;" x1="246" x2="562.3188" y1="195" y2="195"/><text fill="#000000" font-family="sans-serif" font-size="14" lengthAdjust="spacing" textLength="73.2477" x="251" y="213.9659">String nom</text><text fill="#000000" font-family="sans-serif" font-size="14" lengthAdjust="spacing" textLength="112.7556" x="251" y="233.0339">String profession</text><text fill="#000000" font-family="sans-serif" font-size="14" lengthAdjust="spacing" textLength="138.7115" x="251" y="252.1018">String naissanceDate</text><text fill="#000000" font-family="sans-serif" font-size="14" lengthAdjust="spacing" textLength="84.0977" x="251" y="271.1697">String image</text><text fill="#000000" font-family="sans-serif" font-size="14" lengthAdjust="spacing" textLength="102.0456" x="251" y="290.2376">Univers univers</text><line style="stroke:#181818;stroke-width:0.5;" x1="246" x2="562.3188" y1="298.3396" y2="298.3396"/><text fill="#000000" font-family="sans-serif" font-size="14" lengthAdjust="spacing" textLength="269.247" x="251" y="317.3055">void setProfession(String newProfession)</text><text fill="#000000" font-family="sans-serif" font-size="14" lengthAdjust="spacing" textLength="108.5836" x="251" y="336.3734">void supprimer()</text><text fill="#000000" font-family="sans-serif" font-size="14" lengthAdjust="spacing" textLength="306.3188" x="251" y="355.4414">void setMeneurjeu(MeneurJeu newMeneurJeu)</text></g><!--class MeneurJeu--><g class="entity" data-entity="MeneurJeu" data-source-line="21" data-uid="ent0004" id="entity_MeneurJeu"><rect fill="#F1F1F1" height="105.2038" rx="2.5" ry="2.5" style="stroke:#181818;stroke-width:0.5;" width="340.4668" x="682" y="7"/><ellipse cx="812.0105" cy="23" fill="#ADD1B2" rx="11" ry="11" style="stroke:#181818;stroke-width:1;"/><path d="M814.9793,28.6406 Q814.4012,28.9375 813.7605,29.0781 Q813.1199,29.2344 812.4168,29.2344 Q809.9168,29.2344 808.5887,27.5938 Q807.2762,25.9375 807.2762,22.8125 Q807.2762,19.6875 808.5887,18.0313 Q809.9168,16.375 812.4168,16.375 Q813.1199,16.375 813.7605,16.5313 Q814.4168,16.6875 814.9793,16.9844 L814.9793,19.7031 Q814.3543,19.125 813.7605,18.8594 Q813.1668,18.5781 812.5418,18.5781 Q811.198,18.5781 810.5105,19.6563 Q809.823,20.7188 809.823,22.8125 Q809.823,24.9063 810.5105,25.9844 Q811.198,27.0469 812.5418,27.0469 Q813.1668,27.0469 813.7605,26.7813 Q814.3543,26.5 814.9793,25.9219 L814.9793,28.6406 Z " fill="#000000"/><text fill="#000000" font-family="sans-serif" font-size="14" lengthAdjust="spacing" textLength="71.9457" x="832.5105" y="28.432">MeneurJeu</text><line style="stroke:#181818;stroke-width:0.5;" x1="683" x2="1021.4668" y1="39" y2="39"/><line style="stroke:#181818;stroke-width:0.5;" x1="683" x2="1021.4668" y1="47" y2="47"/><text fill="#000000" font-family="sans-serif" font-size="14" lengthAdjust="spacing" textLength="185.9613" x="688" y="65.9659">void accepterPartie(Partie p)</text><text fill="#000000" font-family="sans-serif" font-size="14" lengthAdjust="spacing" textLength="328.4668" x="688" y="85.0339">void accepterPersonnage(Personage personnage)</text><text fill="#000000" font-family="sans-serif" font-size="14" lengthAdjust="spacing" textLength="202.8452" x="688" y="104.1018">void valliderEpisode(Episode e)</text></g><!--class Joueur--><g class="entity" data-entity="Joueur" data-source-line="26" data-uid="ent0005" id="entity_Joueur"><rect fill="#F1F1F1" height="162.4075" rx="2.5" ry="2.5" style="stroke:#181818;stroke-width:0.5;" width="757.7354" x="1055" y="182.5"/><ellipse cx="1407.9808" cy="198.5" fill="#ADD1B2" rx="11" ry="11" style="stroke:#181818;stroke-width:1;"/><path d="M1410.9495,204.1406 Q1410.3714,204.4375 1409.7308,204.5781 Q1409.0901,204.7344 1408.387,204.7344 Q1405.887,204.7344 1404.5589,203.0938 Q1403.2464,201.4375 1403.2464,198.3125 Q1403.2464,195.1875 1404.5589,193.5313 Q1405.887,191.875 1408.387,191.875 Q1409.0901,191.875 1409.7308,192.0313 Q1410.387,192.1875 1410.9495,192.4844 L1410.9495,195.2031 Q1410.3245,194.625 1409.7308,194.3594 Q1409.137,194.0781 1408.512,194.0781 Q1407.1683,194.0781 1406.4808,195.1563 Q1405.7933,196.2188 1405.7933,198.3125 Q1405.7933,200.4063 1406.4808,201.4844 Q1407.1683,202.5469 1408.512,202.5469 Q1409.137,202.5469 1409.7308,202.2813 Q1410.3245,202 1410.9495,201.4219 L1410.9495,204.1406 Z " fill="#000000"/><text fill="#000000" font-family="sans-serif" font-size="14" lengthAdjust="spacing" textLength="43.2738" x="1428.4808" y="203.932">Joueur</text><line style="stroke:#181818;stroke-width:0.5;" x1="1056" x2="1811.7354" y1="214.5" y2="214.5"/><text fill="#000000" font-family="sans-serif" font-size="14" lengthAdjust="spacing" textLength="73.2477" x="1061" y="233.4659">String nom</text><line style="stroke:#181818;stroke-width:0.5;" x1="1056" x2="1811.7354" y1="241.5679" y2="241.5679"/><text fill="#000000" font-family="sans-serif" font-size="14" lengthAdjust="spacing" textLength="206.2612" x="1061" y="260.5339">void cederPersonnage(Joueur j)</text><text fill="#000000" font-family="sans-serif" font-size="14" lengthAdjust="spacing" textLength="745.7354" x="1061" y="279.6018">Personnage creerPersonnage(String nom, String naissanceDate, String profession, Biographie brographieInitiale)</text><text fill="#000000" font-family="sans-serif" font-size="14" lengthAdjust="spacing" textLength="430.0225" x="1061" y="298.6697">Partie proposerPartie(String titre, Univers univers, String resume)</text><text fill="#000000" font-family="sans-serif" font-size="14" lengthAdjust="spacing" textLength="267.833" x="1061" y="317.7376">void proposerPersonnage(MeneurJeu m)</text><text fill="#000000" font-family="sans-serif" font-size="14" lengthAdjust="spacing" textLength="202.8452" x="1061" y="336.8055">void valliderEpisode(Episode e)</text></g><!--class Partie--><g class="entity" data-entity="Partie" data-source-line="34" data-uid="ent0006" id="entity_Partie"><rect fill="#F1F1F1" height="143.3396" rx="2.5" ry="2.5" style="stroke:#181818;stroke-width:0.5;" width="290.8089" x="714.5" y="192"/><ellipse cx="836.3205" cy="208" fill="#ADD1B2" rx="11" ry="11" style="stroke:#181818;stroke-width:1;"/><path d="M839.2893,213.6406 Q838.7112,213.9375 838.0705,214.0781 Q837.4299,214.2344 836.7268,214.2344 Q834.2268,214.2344 832.8987,212.5938 Q831.5862,210.9375 831.5862,207.8125 Q831.5862,204.6875 832.8987,203.0313 Q834.2268,201.375 836.7268,201.375 Q837.4299,201.375 838.0705,201.5313 Q838.7268,201.6875 839.2893,201.9844 L839.2893,204.7031 Q838.6643,204.125 838.0705,203.8594 Q837.4768,203.5781 836.8518,203.5781 Q835.508,203.5781 834.8205,204.6563 Q834.133,205.7188 834.133,207.8125 Q834.133,209.9063 834.8205,210.9844 Q835.508,212.0469 836.8518,212.0469 Q837.4768,212.0469 838.0705,211.7813 Q838.6643,211.5 839.2893,210.9219 L839.2893,213.6406 Z " fill="#000000"/><text fill="#000000" font-family="sans-serif" font-size="14" lengthAdjust="spacing" textLength="38.6679" x="856.8205" y="213.432">Partie</text><line style="stroke:#181818;stroke-width:0.5;" x1="715.5" x2="1004.3089" y1="224" y2="224"/><text fill="#000000" font-family="sans-serif" font-size="14" lengthAdjust="spacing" textLength="93.7296" x="720.5" y="242.9659">boolean jouee</text><line style="stroke:#181818;stroke-width:0.5;" x1="715.5" x2="1004.3089" y1="251.0679" y2="251.0679"/><text fill="#000000" font-family="sans-serif" font-size="14" lengthAdjust="spacing" textLength="84.3217" x="720.5" y="270.0339">void valider()</text><text fill="#000000" font-family="sans-serif" font-size="14" lengthAdjust="spacing" textLength="108.5836" x="720.5" y="289.1018">void supprimer()</text><text fill="#000000" font-family="sans-serif" font-size="14" lengthAdjust="spacing" textLength="257.389" x="720.5" y="308.1697">void ajouterPersonnage(Personnage p)</text><text fill="#000000" font-family="sans-serif" font-size="14" lengthAdjust="spacing" textLength="278.8089" x="720.5" y="327.2376">void supprimerPersonnage(Personnage p)</text></g><!--class Aventure--><g class="entity" data-entity="Aventure" data-source-line="41" data-uid="ent0007" id="entity_Aventure"><rect fill="#F1F1F1" height="48" rx="2.5" ry="2.5" style="stroke:#181818;stroke-width:0.5;" width="91.9898" x="295" y="471"/><ellipse cx="310" cy="487" fill="#ADD1B2" rx="11" ry="11" style="stroke:#181818;stroke-width:1;"/><path d="M312.9688,492.6406 Q312.3906,492.9375 311.75,493.0781 Q311.1094,493.2344 310.4063,493.2344 Q307.9063,493.2344 306.5781,491.5938 Q305.2656,489.9375 305.2656,486.8125 Q305.2656,483.6875 306.5781,482.0313 Q307.9063,480.375 310.4063,480.375 Q311.1094,480.375 311.75,480.5313 Q312.4063,480.6875 312.9688,480.9844 L312.9688,483.7031 Q312.3438,483.125 311.75,482.8594 Q311.1563,482.5781 310.5313,482.5781 Q309.1875,482.5781 308.5,483.6563 Q307.8125,484.7188 307.8125,486.8125 Q307.8125,488.9063 308.5,489.9844 Q309.1875,491.0469 310.5313,491.0469 Q311.1563,491.0469 311.75,490.7813 Q312.3438,490.5 312.9688,489.9219 L312.9688,492.6406 Z " fill="#000000"/><text fill="#000000" font-family="sans-serif" font-size="14" lengthAdjust="spacing" textLength="59.9898" x="324" y="492.432">Aventure</text><line style="stroke:#181818;stroke-width:0.5;" x1="296" x2="385.9898" y1="503" y2="503"/><line style="stroke:#181818;stroke-width:0.5;" x1="296" x2="385.9898" y1="511" y2="511"/></g><!--class Biographie--><g class="entity" data-entity="Biographie" data-source-line="44" data-uid="ent0008" id="entity_Biographie"><rect fill="#F1F1F1" height="124.2717" rx="2.5" ry="2.5" style="stroke:#181818;stroke-width:0.5;" width="232.3031" x="7" y="433"/><ellipse cx="82.8027" cy="449" fill="#ADD1B2" rx="11" ry="11" style="stroke:#181818;stroke-width:1;"/><path d="M85.7715,454.6406 Q85.1933,454.9375 84.5527,455.0781 Q83.9121,455.2344 83.209,455.2344 Q80.709,455.2344 79.3808,453.5938 Q78.0683,451.9375 78.0683,448.8125 Q78.0683,445.6875 79.3808,444.0313 Q80.709,442.375 83.209,442.375 Q83.9121,442.375 84.5527,442.5313 Q85.209,442.6875 85.7715,442.9844 L85.7715,445.7031 Q85.1465,445.125 84.5527,444.8594 Q83.959,444.5781 83.334,444.5781 Q81.9902,444.5781 81.3027,445.6563 Q80.6152,446.7188 80.6152,448.8125 Q80.6152,450.9063 81.3027,451.9844 Q81.9902,453.0469 83.334,453.0469 Q83.959,453.0469 84.5527,452.7813 Q85.1465,452.5 85.7715,451.9219 L85.7715,454.6406 Z " fill="#000000"/><text fill="#000000" font-family="sans-serif" font-size="14" lengthAdjust="spacing" textLength="72.1977" x="103.3027" y="454.432">Biographie</text><line style="stroke:#181818;stroke-width:0.5;" x1="8" x2="238.3031" y1="465" y2="465"/><text fill="#000000" font-family="sans-serif" font-size="14" lengthAdjust="spacing" textLength="70.4337" x="13" y="483.9659">String titre</text><line style="stroke:#181818;stroke-width:0.5;" x1="8" x2="238.3031" y1="492.0679" y2="492.0679"/><text fill="#000000" font-family="sans-serif" font-size="14" lengthAdjust="spacing" textLength="202.0752" x="13" y="511.0339">void ajouterEpisode(Episode e)</text><text fill="#000000" font-family="sans-serif" font-size="14" lengthAdjust="spacing" textLength="220.3031" x="13" y="530.1018">void afficherBiographiePublique()</text><text fill="#000000" font-family="sans-serif" font-size="14" lengthAdjust="spacing" textLength="202.9572" x="13" y="549.1697">void afficherBiographiePrivee()</text></g><!--class Episode--><g class="entity" data-entity="Episode" data-source-line="50" data-uid="ent0009" id="entity_Episode"><rect fill="#F1F1F1" height="143.3396" rx="2.5" ry="2.5" style="stroke:#181818;stroke-width:0.5;" width="176.5274" x="17.5" y="192"/><ellipse cx="75.6698" cy="208" fill="#ADD1B2" rx="11" ry="11" style="stroke:#181818;stroke-width:1;"/><path d="M78.6385,213.6406 Q78.0604,213.9375 77.4198,214.0781 Q76.7792,214.2344 76.076,214.2344 Q73.576,214.2344 72.2479,212.5938 Q70.9354,210.9375 70.9354,207.8125 Q70.9354,204.6875 72.2479,203.0313 Q73.576,201.375 76.076,201.375 Q76.7792,201.375 77.4198,201.5313 Q78.076,201.6875 78.6385,201.9844 L78.6385,204.7031 Q78.0135,204.125 77.4198,203.8594 Q76.826,203.5781 76.201,203.5781 Q74.8573,203.5781 74.1698,204.6563 Q73.4823,205.7188 73.4823,207.8125 Q73.4823,209.9063 74.1698,210.9844 Q74.8573,212.0469 76.201,212.0469 Q76.826,212.0469 77.4198,211.7813 Q78.0135,211.5 78.6385,210.9219 L78.6385,213.6406 Z " fill="#000000"/><text fill="#000000" font-family="sans-serif" font-size="14" lengthAdjust="spacing" textLength="51.6878" x="96.1698" y="213.432">Episode</text><line style="stroke:#181818;stroke-width:0.5;" x1="18.5" x2="193.0274" y1="224" y2="224"/><text fill="#000000" font-family="sans-serif" font-size="14" lengthAdjust="spacing" textLength="70.4337" x="23.5" y="242.9659">String titre</text><line style="stroke:#181818;stroke-width:0.5;" x1="18.5" x2="193.0274" y1="251.0679" y2="251.0679"/><text fill="#000000" font-family="sans-serif" font-size="14" lengthAdjust="spacing" textLength="164.5274" x="23.5" y="270.0339">void ajouterParagraphe()</text><text fill="#000000" font-family="sans-serif" font-size="14" lengthAdjust="spacing" textLength="122.5975" x="23.5" y="289.1018">void sauvegarder()</text><text fill="#000000" font-family="sans-serif" font-size="14" lengthAdjust="spacing" textLength="108.5836" x="23.5" y="308.1697">void supprimer()</text><text fill="#000000" font-family="sans-serif" font-size="14" lengthAdjust="spacing" textLength="84.3217" x="23.5" y="327.2376">void valider()</text></g><!--class Paragraphe--><g class="entity" data-entity="Paragraphe" data-source-line="57" data-uid="ent0010" id="entity_Paragraphe"><rect fill="#F1F1F1" height="105.2038" rx="2.5" ry="2.5" style="stroke:#181818;stroke-width:0.5;" width="154.5754" x="28.5" y="7"/><ellipse cx="63.8453" cy="23" fill="#ADD1B2" rx="11" ry="11" style="stroke:#181818;stroke-width:1;"/><path d="M66.814,28.6406 Q66.2359,28.9375 65.5953,29.0781 Q64.9546,29.2344 64.2515,29.2344 Q61.7515,29.2344 60.4234,27.5938 Q59.1109,25.9375 59.1109,22.8125 Q59.1109,19.6875 60.4234,18.0313 Q61.7515,16.375 64.2515,16.375 Q64.9546,16.375 65.5953,16.5313 Q66.2515,16.6875 66.814,16.9844 L66.814,19.7031 Q66.189,19.125 65.5953,18.8594 Q65.0015,18.5781 64.3765,18.5781 Q63.0328,18.5781 62.3453,19.6563 Q61.6578,20.7188 61.6578,22.8125 Q61.6578,24.9063 62.3453,25.9844 Q63.0328,27.0469 64.3765,27.0469 Q65.0015,27.0469 65.5953,26.7813 Q66.189,26.5 66.814,25.9219 L66.814,28.6406 Z " fill="#000000"/><text fill="#000000" font-family="sans-serif" font-size="14" lengthAdjust="spacing" textLength="77.3637" x="82.3664" y="28.432">Paragraphe</text><line style="stroke:#181818;stroke-width:0.5;" x1="29.5" x2="182.0754" y1="39" y2="39"/><text fill="#000000" font-family="sans-serif" font-size="14" lengthAdjust="spacing" textLength="70.4337" x="34.5" y="57.9659">String titre</text><text fill="#000000" font-family="sans-serif" font-size="14" lengthAdjust="spacing" textLength="113.3016" x="34.5" y="77.0339">boolean isPrivate</text><line style="stroke:#181818;stroke-width:0.5;" x1="29.5" x2="182.0754" y1="85.1358" y2="85.1358"/><text fill="#000000" font-family="sans-serif" font-size="14" lengthAdjust="spacing" textLength="142.5754" x="34.5" y="104.1018">void rendrePublique()</text></g><g class="entity" data-entity="diamond1" data-uid="ent0011" id="entity_diamond1"><polygon fill="#F1F1F1" points="867,483,879,495,867,507,855,495,867,483" style="stroke:#181818;stroke-width:0.5;"/></g><g class="entity" data-entity="diamond2" data-uid="ent0012" id="entity_diamond2"><polygon fill="#F1F1F1" points="639,483,651,495,639,507,627,495,639,483" style="stroke:#181818;stroke-width:0.5;"/></g><!--link Joueur to diamond1--><g class="link" data-entity-1="Joueur" data-entity-2="diamond1" data-source-line="65" data-uid="lnk13" id="link_Joueur_diamond1"><path codeLine="65" d="M1236.09,344.61 C1091.69,403.06 914.59,474.74 875.07,490.73" fill="none" id="Joueur-diamond1" style="stroke:#181818;stroke-width:1;"/><text fill="#000000" font-family="sans-serif" font-size="13" lengthAdjust="spacing" textLength="18.083" x="1199.0315" y="366.7817">0,*</text></g><!--link Partie to diamond1--><g class="link" data-entity-1="Partie" data-entity-2="diamond1" data-source-line="66" data-uid="lnk14" id="link_Partie_diamond1"><path codeLine="66" d="M862.16,335.23 C863.79,388.7 865.88,457.21 866.67,483.28" fill="none" id="Partie-diamond1" style="stroke:#181818;stroke-width:1;"/><text fill="#000000" font-family="sans-serif" font-size="13" lengthAdjust="spacing" textLength="7.436" x="855.0541" y="357.4196">1</text></g><!--link Personnage to diamond1--><g class="link" data-entity-1="Personnage" data-entity-2="diamond1" data-source-line="67" data-uid="lnk15" id="link_Personnage_diamond1"><path codeLine="67" d="M563.01,343.32 C680.25,401.43 825.06,473.21 859.43,490.25" fill="none" id="Personnage-diamond1" style="stroke:#181818;stroke-width:1;"/><text fill="#000000" font-family="sans-serif" font-size="13" lengthAdjust="spacing" textLength="18.083" x="571.1423" y="343.6997">0,*</text></g><!--link MeneurJeu to diamond2--><g class="link" data-entity-1="MeneurJeu" data-entity-2="diamond2" data-source-line="69" data-uid="lnk16" id="link_MeneurJeu_diamond2"><path codeLine="69" d="M741.58,112.17 C721.69,126.07 703.13,142.95 690,163 C619.13,271.23 632.93,441.36 637.75,484.04" fill="none" id="MeneurJeu-diamond2" style="stroke:#181818;stroke-width:1;"/><text fill="#000000" font-family="sans-serif" font-size="13" lengthAdjust="spacing" textLength="7.436" x="719.982" y="133.9366">1</text></g><!--link Partie to diamond2--><g class="link" data-entity-1="Partie" data-entity-2="diamond2" data-source-line="70" data-uid="lnk17" id="link_Partie_diamond2"><path codeLine="70" d="M800.68,335.29 C780.12,358.94 756.57,385.09 734,408 C702.15,440.33 660.74,475.75 645.22,488.8" fill="none" id="Partie-diamond2" style="stroke:#181818;stroke-width:1;"/><text fill="#000000" font-family="sans-serif" font-size="13" lengthAdjust="spacing" textLength="7.436" x="787.234" y="357.4858">1</text></g><!--link Personnage to diamond2--><g class="link" data-entity-1="Personnage" data-entity-2="diamond2" data-source-line="71" data-uid="lnk18" id="link_Personnage_diamond2"><path codeLine="71" d="M525.95,364.01 C534.94,372.27 543.72,380.66 552,389 C586.36,423.61 621.75,470.51 634.27,487.51" fill="none" id="Personnage-diamond2" style="stroke:#181818;stroke-width:1;"/><text fill="#000000" font-family="sans-serif" font-size="13" lengthAdjust="spacing" textLength="18.083" x="515.5309" y="385.2702">0,*</text></g><!--link Episode to Biographie--><g class="link" data-entity-1="Episode" data-entity-2="Biographie" data-source-line="73" data-uid="lnk19" id="link_Episode_Biographie"><path codeLine="73" d="M111.24,335.23 C113.55,366.44 115.3513,390.813 117.5813,420.843" fill="none" id="Episode-to-Biographie" style="stroke:#181818;stroke-width:1;"/><polygon fill="#181818" points="118.47,432.81,122.0147,426.5303,117.5813,420.843,114.0367,427.1227,118.47,432.81" style="stroke:#181818;stroke-width:1;"/></g><!--link Paragraphe to Episode--><g class="link" data-entity-1="Paragraphe" data-entity-2="Episode" data-source-line="74" data-uid="lnk20" id="link_Paragraphe_Episode"><path codeLine="74" d="M106,112.26 C106,136.45 106,153.64 106,179.83" fill="none" id="Paragraphe-to-Episode" style="stroke:#181818;stroke-width:1;"/><polygon fill="#181818" points="106,191.83,110,185.83,106,179.83,102,185.83,106,191.83" style="stroke:#181818;stroke-width:1;"/></g><!--link Episode to Aventure--><g class="link" data-entity-1="Episode" data-entity-2="Aventure" data-source-line="76" data-uid="lnk21" id="link_Episode_Aventure"><path codeLine="76" d="M178.43,335.23 C225.9,381.59 280.6478,435.0575 312.9078,466.5675" fill="none" id="Episode-to-Aventure" style="stroke:#181818;stroke-width:1;"/><polygon fill="#181818" points="317.2,470.76,313.5566,461.6098,313.6231,467.2663,307.9667,467.3328,317.2,470.76" style="stroke:#181818;stroke-width:1;"/><text fill="#000000" font-family="sans-serif" font-size="13" lengthAdjust="spacing" textLength="35.672" x="252" y="403.897">est li&#233;</text><text fill="#000000" font-family="sans-serif" font-size="13" lengthAdjust="spacing" textLength="18.083" x="290.8069" y="459.3578">0,*</text></g><!--link Partie to Aventure--><g class="link" data-entity-1="Partie" data-entity-2="Aventure" data-source-line="77" data-uid="lnk22" id="link_Partie_Aventure"><path codeLine="77" d="M714.39,316.27 C632.59,347.02 529.47,388.61 441,433 C418.64,444.22 399.7349,455.5077 380.8749,467.5677" fill="none" id="Partie-to-Aventure" style="stroke:#181818;stroke-width:1;"/><polygon fill="#181818" points="375.82,470.8,385.5572,469.3214,380.0324,468.1064,381.2474,462.5816,375.82,470.8" style="stroke:#181818;stroke-width:1;"/><text fill="#000000" font-family="sans-serif" font-size="13" lengthAdjust="spacing" textLength="70.8501" x="531" y="403.897">se rapporte</text></g><!--link Personnage to Aventure--><g class="link" data-entity-1="Personnage" data-entity-2="Aventure" data-source-line="79" data-uid="lnk23" id="link_Personnage_Aventure"><path codeLine="79" d="M376.64,364.16 C365.82,403.6 355.9182,439.664 348.9982,464.874" fill="none" id="Personnage-to-Aventure" style="stroke:#181818;stroke-width:1;"/><polygon fill="#181818" points="347.41,470.66,353.6496,463.0398,348.7335,465.8384,345.935,460.9222,347.41,470.66" style="stroke:#181818;stroke-width:1;"/><text fill="#000000" font-family="sans-serif" font-size="13" lengthAdjust="spacing" textLength="18.083" x="356.1891" y="385.4303">1,*</text><text fill="#000000" font-family="sans-serif" font-size="13" lengthAdjust="spacing" textLength="18.083" x="328.7583" y="459.2322">1,*</text></g><!--link Personnage to Biographie--><g class="link" data-entity-1="Personnage" data-entity-2="Biographie" data-source-line="80" data-uid="lnk24" id="link_Personnage_Biographie"><path codeLine="80" d="M299.62,364.22 C282.71,379.29 265.12,394.35 248,408 C237.5,416.38 231.0887,421.3235 219.7587,429.4835" fill="none" id="Personnage-to-Biographie" style="stroke:#181818;stroke-width:1;"/><polygon fill="#181818" points="214.89,432.99,224.5307,430.976,218.9473,430.0679,219.8554,424.4844,214.89,432.99" style="stroke:#181818;stroke-width:1;"/><text fill="#000000" font-family="sans-serif" font-size="13" lengthAdjust="spacing" textLength="7.436" x="285.3758" y="385.4943">1</text><text fill="#000000" font-family="sans-serif" font-size="13" lengthAdjust="spacing" textLength="7.436" x="218.891" y="421.3201">1</text></g><!--link Partie to Univers--><g class="link" data-entity-1="Partie" data-entity-2="Univers" data-source-line="81" data-uid="lnk25" id="link_Partie_Univers"><path codeLine="81" d="M751.21,335.23 C679.9,381.59 591.21,439.25 542.75,470.76" fill="none" id="Partie-Univers" style="stroke:#181818;stroke-width:1;stroke-dasharray:7,7;"/></g><!--link Personnage to Univers--><g class="link" data-entity-1="Personnage" data-entity-2="Univers" data-source-line="82" data-uid="lnk26" id="link_Personnage_Univers"><path codeLine="82" d="M412.97,364.1 C416.5,379.26 421.35,394.38 428,408 C439.92,432.41 461.01,454.83 478.4,470.65" fill="none" id="Personnage-Univers" style="stroke:#181818;stroke-width:1;stroke-dasharray:7,7;"/></g><!--link MeneurJeu to Joueur--><g class="link" data-entity-1="MeneurJeu" data-entity-2="Joueur" data-source-line="83" data-uid="lnk27" id="link_MeneurJeu_Joueur"><path codeLine="83" d="M1000.75,112.13 C1062.29,133.49 1129.4318,156.7925 1197.6218,180.4625" fill="none" id="MeneurJeu-to-Joueur" style="stroke:#181818;stroke-width:1;"/><polygon fill="#181818" points="1203.29,182.43,1196.0994,175.6999,1198.5665,180.7904,1193.476,183.2575,1203.29,182.43" style="stroke:#181818;stroke-width:1;"/><text fill="#000000" font-family="sans-serif" font-size="13" lengthAdjust="spacing" textLength="18.083" x="1001.5031" y="134.2751">0,*</text><text fill="#000000" font-family="sans-serif" font-size="13" lengthAdjust="spacing" textLength="7.436" x="1174.0002" y="170.8041">1</text></g><!--SRC=[bLN1Rjim3BthAuXSuXH9aHJOPOS26xh32Wm8KEm3L9j9bDgIHaafXg8VjE_OZqss9KjEtAtpHJBr-4WzKj8SLgiLt0d2qWeb0IsWqRp41gLjrzWSQjnPi0f8x0yMgeXbvab8pOatG5m-6TJmOPqPfQem6EUGpBMGQ7zg14Nse3Bymu5Nwbd8FUnuRP0nbAw1xrASa0oyCFRAofeR0rl_hwJaU_HMyD-3fTPDgYR_rQHsQ4oRQGxYmXWkIxpZ5lC5qNZ2pX13kdxiR2SbAZ1ejmDf4GdnEHaN6TXfJQ91AXOZXcyeqT4HNT7Fxj6r7CFFOjXdMdz93BmiKLkaBIShiEW7q8i9n21JqKzRmVHWp3nElAv5XVH52-EBLeGHCELohvpFPLhlZgF4QXGoE1pxC5d9Ii8HC94j9skqlApd4ZuBjIUk3txhZnIdNwMmWjTXPr4PKbgPGQ_0POKbptnMwI4KeN5Dhj30al9ErMd-JygGM2_ber8rSWb7BnUEQ5gMub_znBtVLAdxMazvlmcDwNqw-PFl2FCJbyazwe1Eneji9lQU8BkTA0z8YN7h7clnms7nTnJv2hMOc58aVqS-Nd3UqOnY6EvEkEVq7fbJER8Y1iwtCeYL5QRDFLus7HsXh2ZV-2kh16-Kh22CctF33MFXHCtMowkPlvaJD3JKR7DcJkMzz66fVST-DzDqDnTq-HgBrLYjhh9cOPbAxKf0vV3RaDlGTH_z-sFz8_7xLqoa1MNB1lrpexL_FJnHdjIct-Djc4MNCQP3pC2FMK_7IDVNyKR8dJ9h9jewHPl5sv7z0G00]--></g></svg>